<?xml version="1.0" encoding="utf-8" standalone="no"?>
<!DOCTYPE svg PUBLIC "-//W3C//DTD SVG 1.1//EN"
  "http://www.w3.org/Graphics/SVG/1.1/DTD/svg11.dtd">
<svg xmlns:xlink="http://www.w3.org/1999/xlink" width="310.221563pt" height="140.101562pt" viewBox="0 0 310.221563 140.101562" xmlns="http://www.w3.org/2000/svg" version="1.1">
 <metadata>
  <rdf:RDF xmlns:dc="http://purl.org/dc/elements/1.1/" xmlns:cc="http://creativecommons.org/ns#" xmlns:rdf="http://www.w3.org/1999/02/22-rdf-syntax-ns#">
   <cc:Work>
    <dc:type rdf:resource="http://purl.org/dc/dcmitype/StillImage"/>
    <dc:date>2026-07-07T10:55:56.360320</dc:date>
    <dc:format>image/svg+xml</dc:format>
    <dc:creator>
     <cc:Agent>
      <dc:title>Matplotlib v3.9.2, https://matplotlib.org/</dc:title>
     </cc:Agent>
    </dc:creator>
   </cc:Work>
  </rdf:RDF>
 </metadata>
 <defs>
  <style type="text/css">*{stroke-linejoin: round; stroke-linecap: butt}</style>
 </defs>
 <g id="figure_1">
  <g id="patch_1">
   <path d="M 0 140.101562 
L 310.221563 140.101562 
L 310.221563 0 
L 0 0 
L 0 140.101562 
z
" style="fill: none"/>
  </g>
  <g id="axes_1">
   <g id="patch_2">
    <path d="M 26.901563 115.2 
L 305.901563 115.2 
L 305.901563 4.32 
L 26.901563 4.32 
L 26.901563 115.2 
z
" style="fill: none"/>
   </g>
   <g id="matplotlib.axis_1"/>
   <g id="matplotlib.axis_2"/>
   <g id="line2d_1">
    <path d="M 46.240565 29.448973 
L 69.205631 68.230868 
L 92.170697 81.641316 
L 115.135763 91.614848 
L 138.100829 97.437495 
L 161.065894 101.38487 
L 184.03096 105.989428 
L 206.996026 106.830299 
L 229.961092 109.243631 
" clip-path="url(#pe4b33e8627)" style="fill: none; stroke: #9ad0f5; stroke-opacity: 0.5; stroke-width: 2.4; stroke-linecap: square"/>
   </g>
   <g id="PathCollection_1">
    <defs>
     <path id="m9b9e4c5e6e" d="M 0 5.244044 
C 1.390737 5.244044 2.7247 4.691499 3.708099 3.708099 
C 4.691499 2.7247 5.244044 1.390737 5.244044 0 
C 5.244044 -1.390737 4.691499 -2.7247 3.708099 -3.708099 
C 2.7247 -4.691499 1.390737 -5.244044 0 -5.244044 
C -1.390737 -5.244044 -2.7247 -4.691499 -3.708099 -3.708099 
C -4.691499 -2.7247 -5.244044 -1.390737 -5.244044 0 
C -5.244044 1.390737 -4.691499 2.7247 -3.708099 3.708099 
C -2.7247 4.691499 -1.390737 5.244044 0 5.244044 
z
" style="stroke: #9aa6b5"/>
    </defs>
    <g clip-path="url(#pe4b33e8627)">
     <use xlink:href="#m9b9e4c5e6e" x="70.415836" y="13.680008" style="fill: #6b7585; stroke: #9aa6b5"/>
     <use xlink:href="#m9b9e4c5e6e" x="105.189753" y="58.641988" style="fill: #6b7585; stroke: #9aa6b5"/>
     <use xlink:href="#m9b9e4c5e6e" x="133.494827" y="76.513035" style="fill: #6b7585; stroke: #9aa6b5"/>
     <use xlink:href="#m9b9e4c5e6e" x="152.796182" y="71.599505" style="fill: #6b7585; stroke: #9aa6b5"/>
     <use xlink:href="#m9b9e4c5e6e" x="182.40565" y="87.761611" style="fill: #6b7585; stroke: #9aa6b5"/>
     <use xlink:href="#m9b9e4c5e6e" x="211.796801" y="91.470283" style="fill: #6b7585; stroke: #9aa6b5"/>
     <use xlink:href="#m9b9e4c5e6e" x="244.055124" y="87.226187" style="fill: #6b7585; stroke: #9aa6b5"/>
     <use xlink:href="#m9b9e4c5e6e" x="238.426596" y="92.762264" style="fill: #6b7585; stroke: #9aa6b5"/>
     <use xlink:href="#m9b9e4c5e6e" x="276.893058" y="96.919417" style="fill: #6b7585; stroke: #9aa6b5"/>
    </g>
   </g>
   <g id="PathCollection_2">
    <defs>
     <path id="mffddc8c87c" d="M 0 6.123724 
C 1.624031 6.123724 3.181764 5.47849 4.330127 4.330127 
C 5.47849 3.181764 6.123724 1.624031 6.123724 0 
C 6.123724 -1.624031 5.47849 -3.181764 4.330127 -4.330127 
C 3.181764 -5.47849 1.624031 -6.123724 0 -6.123724 
C -1.624031 -6.123724 -3.181764 -5.47849 -4.330127 -4.330127 
C -5.47849 -3.181764 -6.123724 -1.624031 -6.123724 0 
C -6.123724 1.624031 -5.47849 3.181764 -4.330127 4.330127 
C -3.181764 5.47849 -1.624031 6.123724 0 6.123724 
z
" style="stroke: #9ad0f5"/>
    </defs>
    <g clip-path="url(#pe4b33e8627)">
     <use xlink:href="#mffddc8c87c" x="46.240565" y="29.448973" style="fill: #9ad0f5; stroke: #9ad0f5"/>
     <use xlink:href="#mffddc8c87c" x="69.205631" y="68.230868" style="fill: #9ad0f5; stroke: #9ad0f5"/>
     <use xlink:href="#mffddc8c87c" x="92.170697" y="81.641316" style="fill: #9ad0f5; stroke: #9ad0f5"/>
     <use xlink:href="#mffddc8c87c" x="115.135763" y="91.614848" style="fill: #9ad0f5; stroke: #9ad0f5"/>
     <use xlink:href="#mffddc8c87c" x="138.100829" y="97.437495" style="fill: #9ad0f5; stroke: #9ad0f5"/>
     <use xlink:href="#mffddc8c87c" x="161.065894" y="101.38487" style="fill: #9ad0f5; stroke: #9ad0f5"/>
     <use xlink:href="#mffddc8c87c" x="184.03096" y="105.989428" style="fill: #9ad0f5; stroke: #9ad0f5"/>
     <use xlink:href="#mffddc8c87c" x="206.996026" y="106.830299" style="fill: #9ad0f5; stroke: #9ad0f5"/>
     <use xlink:href="#mffddc8c87c" x="229.961092" y="109.243631" style="fill: #9ad0f5; stroke: #9ad0f5"/>
    </g>
   </g>
   <g id="patch_3">
    <path d="M 28.89819 115.2 
Q 166.400253 115.2 302.113462 115.2 
" style="fill: none; stroke: #9aa6b5; stroke-width: 1.6; stroke-linecap: round"/>
    <path d="M 296.513462 112.4 
L 302.113462 115.2 
L 296.513462 118 
z
" style="fill: #9aa6b5; stroke: #9aa6b5; stroke-width: 1.6; stroke-linecap: round"/>
   </g>
   <g id="patch_4">
    <path d="M 26.901563 113.200181 
Q 26.901563 59.75858 26.901563 8.105833 
" style="fill: none; stroke: #9aa6b5; stroke-width: 1.6; stroke-linecap: round"/>
    <path d="M 24.101563 13.705833 
L 26.901563 8.105833 
L 29.701563 13.705833 
z
" style="fill: #9aa6b5; stroke: #9aa6b5; stroke-width: 1.6; stroke-linecap: round"/>
   </g>
   <g id="text_1">
    <text style="fill: #9aa6b5; font: 13px 'DejaVu Sans'; text-anchor: end" x="303.901563" y="133.077969" transform="rotate(-0 303.901563 133.077969)">objective 1</text>
   </g>
   <g id="text_2">
    <text style="fill: #9aa6b5; font: 13px 'DejaVu Sans'" transform="translate(14.197969 78.090156) rotate(-90)">objective 2</text>
   </g>
  </g>
 </g>
 <defs>
  <clipPath id="pe4b33e8627">
   <rect x="26.901563" y="4.32" width="279" height="110.88"/>
  </clipPath>
 </defs>
</svg>
