<?xml version="1.0" encoding="utf-8" standalone="no"?>
<!DOCTYPE svg PUBLIC "-//W3C//DTD SVG 1.1//EN"
  "http://www.w3.org/Graphics/SVG/1.1/DTD/svg11.dtd">
<svg xmlns:xlink="http://www.w3.org/1999/xlink" width="284.76pt" height="116.64pt" viewBox="0 0 284.76 116.64" xmlns="http://www.w3.org/2000/svg" version="1.1">
 <metadata>
  <rdf:RDF xmlns:dc="http://purl.org/dc/elements/1.1/" xmlns:cc="http://creativecommons.org/ns#" xmlns:rdf="http://www.w3.org/1999/02/22-rdf-syntax-ns#">
   <cc:Work>
    <dc:type rdf:resource="http://purl.org/dc/dcmitype/StillImage"/>
    <dc:date>2026-07-07T10:55:56.383010</dc:date>
    <dc:format>image/svg+xml</dc:format>
    <dc:creator>
     <cc:Agent>
      <dc:title>Matplotlib v3.9.2, https://matplotlib.org/</dc:title>
     </cc:Agent>
    </dc:creator>
   </cc:Work>
  </rdf:RDF>
 </metadata>
 <defs>
  <style type="text/css">*{stroke-linejoin: round; stroke-linecap: butt}</style>
 </defs>
 <g id="figure_1">
  <g id="patch_1">
   <path d="M 0 116.64 
L 284.76 116.64 
L 284.76 0 
L 0 0 
L 0 116.64 
z
" style="fill: none"/>
  </g>
  <g id="axes_1">
   <g id="patch_2">
    <path d="M 2.88 113.76 
L 281.88 113.76 
L 281.88 2.88 
L 2.88 2.88 
L 2.88 113.76 
z
" style="fill: none"/>
   </g>
   <g id="matplotlib.axis_1"/>
   <g id="matplotlib.axis_2"/>
   <g id="PolyCollection_1">
    <defs>
     <path id="m8888f96da6" d="M 15.561818 -10.729912 
L 15.561818 -11.032988 
L 16.197498 -11.051022 
L 16.833178 -11.07003 
L 17.468859 -11.090059 
L 18.104539 -11.111156 
L 18.740219 -11.133373 
L 19.375899 -11.156759 
L 20.011579 -11.18137 
L 20.647259 -11.207262 
L 21.282939 -11.234492 
L 21.918619 -11.26312 
L 22.554299 -11.293209 
L 23.189979 -11.324823 
L 23.82566 -11.358028 
L 24.46134 -11.392895 
L 25.09702 -11.429494 
L 25.7327 -11.467899 
L 26.36838 -11.508186 
L 27.00406 -11.550434 
L 27.63974 -11.594724 
L 28.27542 -11.64114 
L 28.9111 -11.689768 
L 29.546781 -11.740698 
L 30.182461 -11.794021 
L 30.818141 -11.849832 
L 31.453821 -11.908228 
L 32.089501 -11.969309 
L 32.725181 -12.033177 
L 33.360861 -12.099939 
L 33.996541 -12.169702 
L 34.632221 -12.242578 
L 35.267902 -12.318682 
L 35.903582 -12.398129 
L 36.539262 -12.481041 
L 37.174942 -12.56754 
L 37.810622 -12.657751 
L 38.446302 -12.751804 
L 39.081982 -12.84983 
L 39.717662 -12.951962 
L 40.353342 -13.058339 
L 40.989023 -13.169099 
L 41.624703 -13.284386 
L 42.260383 -13.404346 
L 42.896063 -13.529125 
L 43.531743 -13.658876 
L 44.167423 -13.79375 
L 44.803103 -13.933905 
L 45.438783 -14.079498 
L 46.074463 -14.23069 
L 46.710144 -14.387644 
L 47.345824 -14.550525 
L 47.981504 -14.7195 
L 48.617184 -14.894739 
L 49.252864 -15.076412 
L 49.888544 -15.264692 
L 50.524224 -15.459755 
L 51.159904 -15.661775 
L 51.795584 -15.870931 
L 52.431265 -16.0874 
L 53.066945 -16.311363 
L 53.702625 -16.542999 
L 54.338305 -16.78249 
L 54.973985 -17.030019 
L 55.609665 -17.285765 
L 56.245345 -17.549912 
L 56.881025 -17.822642 
L 57.516705 -18.104136 
L 58.152386 -18.394575 
L 58.788066 -18.69414 
L 59.423746 -19.00301 
L 60.059426 -19.321363 
L 60.695106 -19.649375 
L 61.330786 -19.987221 
L 61.966466 -20.335073 
L 62.602146 -20.693103 
L 63.237826 -21.061476 
L 63.873506 -21.440358 
L 64.509187 -21.82991 
L 65.144867 -22.23029 
L 65.780547 -22.641651 
L 66.416227 -23.064143 
L 67.051907 -23.497912 
L 67.687587 -23.943097 
L 68.323267 -24.399833 
L 68.958947 -24.86825 
L 69.594627 -25.348472 
L 70.230308 -25.840615 
L 70.865988 -26.34479 
L 71.501668 -26.861102 
L 72.137348 -27.389646 
L 72.773028 -27.930511 
L 73.408708 -28.483778 
L 74.044388 -29.04952 
L 74.680068 -29.627799 
L 75.315748 -30.218672 
L 75.951429 -30.822182 
L 76.587109 -31.438366 
L 77.222789 -32.067249 
L 77.858469 -32.708844 
L 78.494149 -33.363158 
L 79.129829 -34.030181 
L 79.765509 -34.709897 
L 80.401189 -35.402274 
L 81.036869 -36.10727 
L 81.67255 -36.82483 
L 82.30823 -37.554888 
L 82.94391 -38.297362 
L 83.57959 -39.052159 
L 84.21527 -39.819172 
L 84.85095 -40.598281 
L 85.48663 -41.389351 
L 86.12231 -42.192233 
L 86.75799 -43.006764 
L 87.393671 -43.832766 
L 88.029351 -44.670047 
L 88.665031 -45.5184 
L 89.300711 -46.377602 
L 89.936391 -47.247417 
L 90.572071 -48.127592 
L 91.207751 -49.01786 
L 91.843431 -49.917937 
L 92.479111 -50.827524 
L 93.114792 -51.746309 
L 93.750472 -52.673963 
L 94.386152 -53.61014 
L 95.021832 -54.554482 
L 95.657512 -55.506614 
L 96.293192 -56.466145 
L 96.928872 -57.432672 
L 97.564552 -58.405775 
L 98.200232 -59.385019 
L 98.835913 -60.369957 
L 99.471593 -61.360125 
L 100.107273 -62.355047 
L 100.742953 -63.354234 
L 101.378633 -64.35718 
L 102.014313 -65.363372 
L 102.649993 -66.372278 
L 103.285673 -67.383358 
L 103.921353 -68.396059 
L 104.557033 -69.409816 
L 105.192714 -70.424054 
L 105.828394 -71.438187 
L 106.464074 -72.451619 
L 107.099754 -73.463746 
L 107.735434 -74.473952 
L 108.371114 -75.481616 
L 109.006794 -76.486107 
L 109.642474 -77.486788 
L 110.278154 -78.483017 
L 110.913835 -79.474142 
L 111.549515 -80.45951 
L 112.185195 -81.438462 
L 112.820875 -82.410335 
L 113.456555 -83.374463 
L 114.092235 -84.330179 
L 114.727915 -85.276813 
L 115.363595 -86.213696 
L 115.999275 -87.140155 
L 116.634956 -88.055524 
L 117.270636 -88.959133 
L 117.906316 -89.850318 
L 118.541996 -90.728416 
L 119.177676 -91.592769 
L 119.813356 -92.442725 
L 120.449036 -93.277634 
L 121.084716 -94.096858 
L 121.720396 -94.89976 
L 122.356077 -95.685716 
L 122.991757 -96.45411 
L 123.627437 -97.204332 
L 124.263117 -97.935788 
L 124.898797 -98.647891 
L 125.534477 -99.340069 
L 126.170157 -100.01176 
L 126.805837 -100.662418 
L 127.441517 -101.291511 
L 128.077198 -101.89852 
L 128.712878 -102.482945 
L 129.348558 -103.044299 
L 129.984238 -103.582114 
L 130.619918 -104.095941 
L 131.255598 -104.585347 
L 131.891278 -105.049919 
L 132.526958 -105.489264 
L 133.162638 -105.903008 
L 133.798319 -106.290799 
L 134.433999 -106.652305 
L 135.069679 -106.987217 
L 135.705359 -107.295246 
L 136.341039 -107.576128 
L 136.976719 -107.829621 
L 137.612399 -108.055504 
L 138.248079 -108.253583 
L 138.883759 -108.423686 
L 139.51944 -108.565665 
L 140.15512 -108.679397 
L 140.7908 -108.764783 
L 141.42648 -108.821748 
L 142.06216 -108.850243 
L 142.69784 -108.850243 
L 143.33352 -108.821748 
L 143.9692 -108.764783 
L 144.60488 -108.679397 
L 145.24056 -108.565665 
L 145.876241 -108.423686 
L 146.511921 -108.253583 
L 147.147601 -108.055504 
L 147.783281 -107.829621 
L 148.418961 -107.576128 
L 149.054641 -107.295246 
L 149.690321 -106.987217 
L 150.326001 -106.652305 
L 150.961681 -106.290799 
L 151.597362 -105.903008 
L 152.233042 -105.489264 
L 152.868722 -105.049919 
L 153.504402 -104.585347 
L 154.140082 -104.095941 
L 154.775762 -103.582114 
L 155.411442 -103.044299 
L 156.047122 -102.482945 
L 156.682802 -101.89852 
L 157.318483 -101.291511 
L 157.954163 -100.662418 
L 158.589843 -100.01176 
L 159.225523 -99.340069 
L 159.861203 -98.647891 
L 160.496883 -97.935788 
L 161.132563 -97.204332 
L 161.768243 -96.45411 
L 162.403923 -95.685716 
L 163.039604 -94.89976 
L 163.675284 -94.096858 
L 164.310964 -93.277634 
L 164.946644 -92.442725 
L 165.582324 -91.592769 
L 166.218004 -90.728416 
L 166.853684 -89.850318 
L 167.489364 -88.959133 
L 168.125044 -88.055524 
L 168.760725 -87.140155 
L 169.396405 -86.213696 
L 170.032085 -85.276813 
L 170.667765 -84.330179 
L 171.303445 -83.374463 
L 171.939125 -82.410335 
L 172.574805 -81.438462 
L 173.210485 -80.45951 
L 173.846165 -79.474142 
L 174.481846 -78.483017 
L 175.117526 -77.486788 
L 175.753206 -76.486107 
L 176.388886 -75.481616 
L 177.024566 -74.473952 
L 177.660246 -73.463746 
L 178.295926 -72.451619 
L 178.931606 -71.438187 
L 179.567286 -70.424054 
L 180.202967 -69.409816 
L 180.838647 -68.396059 
L 181.474327 -67.383358 
L 182.110007 -66.372278 
L 182.745687 -65.363372 
L 183.381367 -64.35718 
L 184.017047 -63.354234 
L 184.652727 -62.355047 
L 185.288407 -61.360125 
L 185.924087 -60.369957 
L 186.559768 -59.385019 
L 187.195448 -58.405775 
L 187.831128 -57.432672 
L 188.466808 -56.466145 
L 189.102488 -55.506614 
L 189.738168 -54.554482 
L 190.373848 -53.61014 
L 191.009528 -52.673963 
L 191.645208 -51.746309 
L 192.280889 -50.827524 
L 192.916569 -49.917937 
L 193.552249 -49.01786 
L 194.187929 -48.127592 
L 194.823609 -47.247417 
L 195.459289 -46.377602 
L 196.094969 -45.5184 
L 196.730649 -44.670047 
L 197.366329 -43.832766 
L 198.00201 -43.006764 
L 198.63769 -42.192233 
L 199.27337 -41.389351 
L 199.90905 -40.598281 
L 200.54473 -39.819172 
L 201.18041 -39.052159 
L 201.81609 -38.297362 
L 202.45177 -37.554888 
L 203.08745 -36.82483 
L 203.723131 -36.10727 
L 204.358811 -35.402274 
L 204.994491 -34.709897 
L 205.630171 -34.030181 
L 206.265851 -33.363158 
L 206.901531 -32.708844 
L 207.537211 -32.067249 
L 208.172891 -31.438366 
L 208.808571 -30.822182 
L 209.444252 -30.218672 
L 210.079932 -29.627799 
L 210.715612 -29.04952 
L 211.351292 -28.483778 
L 211.986972 -27.930511 
L 212.622652 -27.389646 
L 213.258332 -26.861102 
L 213.894012 -26.34479 
L 214.529692 -25.840615 
L 215.165373 -25.348472 
L 215.801053 -24.86825 
L 216.436733 -24.399833 
L 217.072413 -23.943097 
L 217.708093 -23.497912 
L 218.343773 -23.064143 
L 218.979453 -22.641651 
L 219.615133 -22.23029 
L 220.250813 -21.82991 
L 220.886494 -21.440358 
L 221.522174 -21.061476 
L 222.157854 -20.693103 
L 222.793534 -20.335073 
L 223.429214 -19.987221 
L 224.064894 -19.649375 
L 224.700574 -19.321363 
L 225.336254 -19.00301 
L 225.971934 -18.69414 
L 226.607614 -18.394575 
L 227.243295 -18.104136 
L 227.878975 -17.822642 
L 228.514655 -17.549912 
L 229.150335 -17.285765 
L 229.786015 -17.030019 
L 230.421695 -16.78249 
L 231.057375 -16.542999 
L 231.693055 -16.311363 
L 232.328735 -16.0874 
L 232.964416 -15.870931 
L 233.600096 -15.661775 
L 234.235776 -15.459755 
L 234.871456 -15.264692 
L 235.507136 -15.076412 
L 236.142816 -14.894739 
L 236.778496 -14.7195 
L 237.414176 -14.550525 
L 238.049856 -14.387644 
L 238.685537 -14.23069 
L 239.321217 -14.079498 
L 239.956897 -13.933905 
L 240.592577 -13.79375 
L 241.228257 -13.658876 
L 241.863937 -13.529125 
L 242.499617 -13.404346 
L 243.135297 -13.284386 
L 243.770977 -13.169099 
L 244.406658 -13.058339 
L 245.042338 -12.951962 
L 245.678018 -12.84983 
L 246.313698 -12.751804 
L 246.949378 -12.657751 
L 247.585058 -12.56754 
L 248.220738 -12.481041 
L 248.856418 -12.398129 
L 249.492098 -12.318682 
L 250.127779 -12.242578 
L 250.763459 -12.169702 
L 251.399139 -12.099939 
L 252.034819 -12.033177 
L 252.670499 -11.969309 
L 253.306179 -11.908228 
L 253.941859 -11.849832 
L 254.577539 -11.794021 
L 255.213219 -11.740698 
L 255.8489 -11.689768 
L 256.48458 -11.64114 
L 257.12026 -11.594724 
L 257.75594 -11.550434 
L 258.39162 -11.508186 
L 259.0273 -11.467899 
L 259.66298 -11.429494 
L 260.29866 -11.392895 
L 260.93434 -11.358028 
L 261.570021 -11.324823 
L 262.205701 -11.293209 
L 262.841381 -11.26312 
L 263.477061 -11.234492 
L 264.112741 -11.207262 
L 264.748421 -11.18137 
L 265.384101 -11.156759 
L 266.019781 -11.133373 
L 266.655461 -11.111156 
L 267.291141 -11.090059 
L 267.926822 -11.07003 
L 268.562502 -11.051022 
L 269.198182 -11.032988 
L 269.198182 -10.729912 
L 269.198182 -10.729912 
L 268.562502 -10.729912 
L 267.926822 -10.729912 
L 267.291141 -10.729912 
L 266.655461 -10.729912 
L 266.019781 -10.729912 
L 265.384101 -10.729912 
L 264.748421 -10.729912 
L 264.112741 -10.729912 
L 263.477061 -10.729912 
L 262.841381 -10.729912 
L 262.205701 -10.729912 
L 261.570021 -10.729912 
L 260.93434 -10.729912 
L 260.29866 -10.729912 
L 259.66298 -10.729912 
L 259.0273 -10.729912 
L 258.39162 -10.729912 
L 257.75594 -10.729912 
L 257.12026 -10.729912 
L 256.48458 -10.729912 
L 255.8489 -10.729912 
L 255.213219 -10.729912 
L 254.577539 -10.729912 
L 253.941859 -10.729912 
L 253.306179 -10.729912 
L 252.670499 -10.729912 
L 252.034819 -10.729912 
L 251.399139 -10.729912 
L 250.763459 -10.729912 
L 250.127779 -10.729912 
L 249.492098 -10.729912 
L 248.856418 -10.729912 
L 248.220738 -10.729912 
L 247.585058 -10.729912 
L 246.949378 -10.729912 
L 246.313698 -10.729912 
L 245.678018 -10.729912 
L 245.042338 -10.729912 
L 244.406658 -10.729912 
L 243.770977 -10.729912 
L 243.135297 -10.729912 
L 242.499617 -10.729912 
L 241.863937 -10.729912 
L 241.228257 -10.729912 
L 240.592577 -10.729912 
L 239.956897 -10.729912 
L 239.321217 -10.729912 
L 238.685537 -10.729912 
L 238.049856 -10.729912 
L 237.414176 -10.729912 
L 236.778496 -10.729912 
L 236.142816 -10.729912 
L 235.507136 -10.729912 
L 234.871456 -10.729912 
L 234.235776 -10.729912 
L 233.600096 -10.729912 
L 232.964416 -10.729912 
L 232.328735 -10.729912 
L 231.693055 -10.729912 
L 231.057375 -10.729912 
L 230.421695 -10.729912 
L 229.786015 -10.729912 
L 229.150335 -10.729912 
L 228.514655 -10.729912 
L 227.878975 -10.729912 
L 227.243295 -10.729912 
L 226.607614 -10.729912 
L 225.971934 -10.729912 
L 225.336254 -10.729912 
L 224.700574 -10.729912 
L 224.064894 -10.729912 
L 223.429214 -10.729912 
L 222.793534 -10.729912 
L 222.157854 -10.729912 
L 221.522174 -10.729912 
L 220.886494 -10.729912 
L 220.250813 -10.729912 
L 219.615133 -10.729912 
L 218.979453 -10.729912 
L 218.343773 -10.729912 
L 217.708093 -10.729912 
L 217.072413 -10.729912 
L 216.436733 -10.729912 
L 215.801053 -10.729912 
L 215.165373 -10.729912 
L 214.529692 -10.729912 
L 213.894012 -10.729912 
L 213.258332 -10.729912 
L 212.622652 -10.729912 
L 211.986972 -10.729912 
L 211.351292 -10.729912 
L 210.715612 -10.729912 
L 210.079932 -10.729912 
L 209.444252 -10.729912 
L 208.808571 -10.729912 
L 208.172891 -10.729912 
L 207.537211 -10.729912 
L 206.901531 -10.729912 
L 206.265851 -10.729912 
L 205.630171 -10.729912 
L 204.994491 -10.729912 
L 204.358811 -10.729912 
L 203.723131 -10.729912 
L 203.08745 -10.729912 
L 202.45177 -10.729912 
L 201.81609 -10.729912 
L 201.18041 -10.729912 
L 200.54473 -10.729912 
L 199.90905 -10.729912 
L 199.27337 -10.729912 
L 198.63769 -10.729912 
L 198.00201 -10.729912 
L 197.366329 -10.729912 
L 196.730649 -10.729912 
L 196.094969 -10.729912 
L 195.459289 -10.729912 
L 194.823609 -10.729912 
L 194.187929 -10.729912 
L 193.552249 -10.729912 
L 192.916569 -10.729912 
L 192.280889 -10.729912 
L 191.645208 -10.729912 
L 191.009528 -10.729912 
L 190.373848 -10.729912 
L 189.738168 -10.729912 
L 189.102488 -10.729912 
L 188.466808 -10.729912 
L 187.831128 -10.729912 
L 187.195448 -10.729912 
L 186.559768 -10.729912 
L 185.924087 -10.729912 
L 185.288407 -10.729912 
L 184.652727 -10.729912 
L 184.017047 -10.729912 
L 183.381367 -10.729912 
L 182.745687 -10.729912 
L 182.110007 -10.729912 
L 181.474327 -10.729912 
L 180.838647 -10.729912 
L 180.202967 -10.729912 
L 179.567286 -10.729912 
L 178.931606 -10.729912 
L 178.295926 -10.729912 
L 177.660246 -10.729912 
L 177.024566 -10.729912 
L 176.388886 -10.729912 
L 175.753206 -10.729912 
L 175.117526 -10.729912 
L 174.481846 -10.729912 
L 173.846165 -10.729912 
L 173.210485 -10.729912 
L 172.574805 -10.729912 
L 171.939125 -10.729912 
L 171.303445 -10.729912 
L 170.667765 -10.729912 
L 170.032085 -10.729912 
L 169.396405 -10.729912 
L 168.760725 -10.729912 
L 168.125044 -10.729912 
L 167.489364 -10.729912 
L 166.853684 -10.729912 
L 166.218004 -10.729912 
L 165.582324 -10.729912 
L 164.946644 -10.729912 
L 164.310964 -10.729912 
L 163.675284 -10.729912 
L 163.039604 -10.729912 
L 162.403923 -10.729912 
L 161.768243 -10.729912 
L 161.132563 -10.729912 
L 160.496883 -10.729912 
L 159.861203 -10.729912 
L 159.225523 -10.729912 
L 158.589843 -10.729912 
L 157.954163 -10.729912 
L 157.318483 -10.729912 
L 156.682802 -10.729912 
L 156.047122 -10.729912 
L 155.411442 -10.729912 
L 154.775762 -10.729912 
L 154.140082 -10.729912 
L 153.504402 -10.729912 
L 152.868722 -10.729912 
L 152.233042 -10.729912 
L 151.597362 -10.729912 
L 150.961681 -10.729912 
L 150.326001 -10.729912 
L 149.690321 -10.729912 
L 149.054641 -10.729912 
L 148.418961 -10.729912 
L 147.783281 -10.729912 
L 147.147601 -10.729912 
L 146.511921 -10.729912 
L 145.876241 -10.729912 
L 145.24056 -10.729912 
L 144.60488 -10.729912 
L 143.9692 -10.729912 
L 143.33352 -10.729912 
L 142.69784 -10.729912 
L 142.06216 -10.729912 
L 141.42648 -10.729912 
L 140.7908 -10.729912 
L 140.15512 -10.729912 
L 139.51944 -10.729912 
L 138.883759 -10.729912 
L 138.248079 -10.729912 
L 137.612399 -10.729912 
L 136.976719 -10.729912 
L 136.341039 -10.729912 
L 135.705359 -10.729912 
L 135.069679 -10.729912 
L 134.433999 -10.729912 
L 133.798319 -10.729912 
L 133.162638 -10.729912 
L 132.526958 -10.729912 
L 131.891278 -10.729912 
L 131.255598 -10.729912 
L 130.619918 -10.729912 
L 129.984238 -10.729912 
L 129.348558 -10.729912 
L 128.712878 -10.729912 
L 128.077198 -10.729912 
L 127.441517 -10.729912 
L 126.805837 -10.729912 
L 126.170157 -10.729912 
L 125.534477 -10.729912 
L 124.898797 -10.729912 
L 124.263117 -10.729912 
L 123.627437 -10.729912 
L 122.991757 -10.729912 
L 122.356077 -10.729912 
L 121.720396 -10.729912 
L 121.084716 -10.729912 
L 120.449036 -10.729912 
L 119.813356 -10.729912 
L 119.177676 -10.729912 
L 118.541996 -10.729912 
L 117.906316 -10.729912 
L 117.270636 -10.729912 
L 116.634956 -10.729912 
L 115.999275 -10.729912 
L 115.363595 -10.729912 
L 114.727915 -10.729912 
L 114.092235 -10.729912 
L 113.456555 -10.729912 
L 112.820875 -10.729912 
L 112.185195 -10.729912 
L 111.549515 -10.729912 
L 110.913835 -10.729912 
L 110.278154 -10.729912 
L 109.642474 -10.729912 
L 109.006794 -10.729912 
L 108.371114 -10.729912 
L 107.735434 -10.729912 
L 107.099754 -10.729912 
L 106.464074 -10.729912 
L 105.828394 -10.729912 
L 105.192714 -10.729912 
L 104.557033 -10.729912 
L 103.921353 -10.729912 
L 103.285673 -10.729912 
L 102.649993 -10.729912 
L 102.014313 -10.729912 
L 101.378633 -10.729912 
L 100.742953 -10.729912 
L 100.107273 -10.729912 
L 99.471593 -10.729912 
L 98.835913 -10.729912 
L 98.200232 -10.729912 
L 97.564552 -10.729912 
L 96.928872 -10.729912 
L 96.293192 -10.729912 
L 95.657512 -10.729912 
L 95.021832 -10.729912 
L 94.386152 -10.729912 
L 93.750472 -10.729912 
L 93.114792 -10.729912 
L 92.479111 -10.729912 
L 91.843431 -10.729912 
L 91.207751 -10.729912 
L 90.572071 -10.729912 
L 89.936391 -10.729912 
L 89.300711 -10.729912 
L 88.665031 -10.729912 
L 88.029351 -10.729912 
L 87.393671 -10.729912 
L 86.75799 -10.729912 
L 86.12231 -10.729912 
L 85.48663 -10.729912 
L 84.85095 -10.729912 
L 84.21527 -10.729912 
L 83.57959 -10.729912 
L 82.94391 -10.729912 
L 82.30823 -10.729912 
L 81.67255 -10.729912 
L 81.036869 -10.729912 
L 80.401189 -10.729912 
L 79.765509 -10.729912 
L 79.129829 -10.729912 
L 78.494149 -10.729912 
L 77.858469 -10.729912 
L 77.222789 -10.729912 
L 76.587109 -10.729912 
L 75.951429 -10.729912 
L 75.315748 -10.729912 
L 74.680068 -10.729912 
L 74.044388 -10.729912 
L 73.408708 -10.729912 
L 72.773028 -10.729912 
L 72.137348 -10.729912 
L 71.501668 -10.729912 
L 70.865988 -10.729912 
L 70.230308 -10.729912 
L 69.594627 -10.729912 
L 68.958947 -10.729912 
L 68.323267 -10.729912 
L 67.687587 -10.729912 
L 67.051907 -10.729912 
L 66.416227 -10.729912 
L 65.780547 -10.729912 
L 65.144867 -10.729912 
L 64.509187 -10.729912 
L 63.873506 -10.729912 
L 63.237826 -10.729912 
L 62.602146 -10.729912 
L 61.966466 -10.729912 
L 61.330786 -10.729912 
L 60.695106 -10.729912 
L 60.059426 -10.729912 
L 59.423746 -10.729912 
L 58.788066 -10.729912 
L 58.152386 -10.729912 
L 57.516705 -10.729912 
L 56.881025 -10.729912 
L 56.245345 -10.729912 
L 55.609665 -10.729912 
L 54.973985 -10.729912 
L 54.338305 -10.729912 
L 53.702625 -10.729912 
L 53.066945 -10.729912 
L 52.431265 -10.729912 
L 51.795584 -10.729912 
L 51.159904 -10.729912 
L 50.524224 -10.729912 
L 49.888544 -10.729912 
L 49.252864 -10.729912 
L 48.617184 -10.729912 
L 47.981504 -10.729912 
L 47.345824 -10.729912 
L 46.710144 -10.729912 
L 46.074463 -10.729912 
L 45.438783 -10.729912 
L 44.803103 -10.729912 
L 44.167423 -10.729912 
L 43.531743 -10.729912 
L 42.896063 -10.729912 
L 42.260383 -10.729912 
L 41.624703 -10.729912 
L 40.989023 -10.729912 
L 40.353342 -10.729912 
L 39.717662 -10.729912 
L 39.081982 -10.729912 
L 38.446302 -10.729912 
L 37.810622 -10.729912 
L 37.174942 -10.729912 
L 36.539262 -10.729912 
L 35.903582 -10.729912 
L 35.267902 -10.729912 
L 34.632221 -10.729912 
L 33.996541 -10.729912 
L 33.360861 -10.729912 
L 32.725181 -10.729912 
L 32.089501 -10.729912 
L 31.453821 -10.729912 
L 30.818141 -10.729912 
L 30.182461 -10.729912 
L 29.546781 -10.729912 
L 28.9111 -10.729912 
L 28.27542 -10.729912 
L 27.63974 -10.729912 
L 27.00406 -10.729912 
L 26.36838 -10.729912 
L 25.7327 -10.729912 
L 25.09702 -10.729912 
L 24.46134 -10.729912 
L 23.82566 -10.729912 
L 23.189979 -10.729912 
L 22.554299 -10.729912 
L 21.918619 -10.729912 
L 21.282939 -10.729912 
L 20.647259 -10.729912 
L 20.011579 -10.729912 
L 19.375899 -10.729912 
L 18.740219 -10.729912 
L 18.104539 -10.729912 
L 17.468859 -10.729912 
L 16.833178 -10.729912 
L 16.197498 -10.729912 
L 15.561818 -10.729912 
z
" style="stroke: #b58cd6; stroke-opacity: 0.35"/>
    </defs>
    <g clip-path="url(#pa454f0f633)">
     <use xlink:href="#m8888f96da6" x="0" y="116.64" style="fill: #b58cd6; fill-opacity: 0.35; stroke: #b58cd6; stroke-opacity: 0.35"/>
    </g>
   </g>
   <g id="line2d_1">
    <path d="M 15.561818 105.607012 
L 24.46134 105.247105 
L 30.818141 104.790168 
L 36.539262 104.158959 
L 41.624703 103.355614 
L 46.074463 102.40931 
L 49.888544 101.375308 
L 53.702625 100.097001 
L 56.881025 98.817358 
L 60.059426 97.318637 
L 63.237826 95.578524 
L 66.416227 93.575857 
L 69.594627 91.291528 
L 72.773028 88.709489 
L 75.951429 85.817818 
L 79.129829 82.609819 
L 82.30823 79.085112 
L 85.48663 75.250649 
L 89.300711 70.262398 
L 93.114792 64.893691 
L 97.564552 58.234225 
L 103.921353 48.243941 
L 112.820875 34.229665 
L 117.270636 27.680867 
L 120.449036 23.362366 
L 123.627437 19.435668 
L 126.170157 16.62824 
L 128.712878 14.157055 
L 131.255598 12.054653 
L 133.162638 10.736992 
L 135.069679 9.652783 
L 136.976719 8.810379 
L 138.883759 8.216314 
L 140.7908 7.875217 
L 142.69784 7.789757 
L 144.60488 7.960603 
L 146.511921 8.386417 
L 148.418961 9.063872 
L 150.326001 9.987695 
L 152.233042 11.150736 
L 154.140082 12.544059 
L 156.682802 14.74148 
L 159.225523 17.299931 
L 161.768243 20.18589 
L 164.946644 24.197275 
L 168.125044 28.584476 
L 171.939125 34.229665 
L 177.660246 43.176254 
L 188.466808 60.173855 
L 192.916569 66.722063 
L 196.730649 71.969953 
L 200.54473 76.820828 
L 203.723131 80.53273 
L 206.901531 83.931156 
L 210.079932 87.012201 
L 213.258332 89.778898 
L 216.436733 92.240167 
L 219.615133 94.40971 
L 222.793534 96.304927 
L 225.971934 97.94586 
L 229.150335 99.354235 
L 232.964416 100.769069 
L 236.778496 101.9205 
L 240.592577 102.84625 
L 245.042338 103.688038 
L 250.127779 104.397422 
L 255.8489 104.950232 
L 262.841381 105.37688 
L 269.198182 105.607012 
L 269.198182 105.607012 
" clip-path="url(#pa454f0f633)" style="fill: none; stroke: #b58cd6; stroke-width: 2.2; stroke-linecap: square"/>
   </g>
   <g id="line2d_2">
    <path d="M 142.38 113.76 
L 142.38 2.88 
" clip-path="url(#pa454f0f633)" style="fill: none; stroke-dasharray: 7.4,3.2; stroke-dashoffset: 0; stroke: #e6e6e6; stroke-width: 2"/>
   </g>
   <g id="PathCollection_1">
    <defs>
     <path id="m2a0a58049b" d="M 0 4.743416 
C 1.257969 4.743416 2.464584 4.24362 3.354102 3.354102 
C 4.24362 2.464584 4.743416 1.257969 4.743416 0 
C 4.743416 -1.257969 4.24362 -2.464584 3.354102 -3.354102 
C 2.464584 -4.24362 1.257969 -4.743416 0 -4.743416 
C -1.257969 -4.743416 -2.464584 -4.24362 -3.354102 -3.354102 
C -4.24362 -2.464584 -4.743416 -1.257969 -4.743416 0 
C -4.743416 1.257969 -4.24362 2.464584 -3.354102 3.354102 
C -2.464584 4.24362 -1.257969 4.743416 0 4.743416 
z
" style="stroke: #9aa6b5"/>
    </defs>
    <g>
     <use xlink:href="#m2a0a58049b" x="79.320717" y="110.816283" style="fill: #ffd27f; stroke: #9aa6b5"/>
     <use xlink:href="#m2a0a58049b" x="101.469814" y="110.816283" style="fill: #ffd27f; stroke: #9aa6b5"/>
     <use xlink:href="#m2a0a58049b" x="114.485274" y="110.816283" style="fill: #ffd27f; stroke: #9aa6b5"/>
     <use xlink:href="#m2a0a58049b" x="124.745219" y="110.816283" style="fill: #ffd27f; stroke: #9aa6b5"/>
     <use xlink:href="#m2a0a58049b" x="133.805445" y="110.816283" style="fill: #ffd27f; stroke: #9aa6b5"/>
     <use xlink:href="#m2a0a58049b" x="142.38" y="110.816283" style="fill: #ffd27f; stroke: #9aa6b5"/>
     <use xlink:href="#m2a0a58049b" x="150.954555" y="110.816283" style="fill: #ffd27f; stroke: #9aa6b5"/>
     <use xlink:href="#m2a0a58049b" x="160.014781" y="110.816283" style="fill: #ffd27f; stroke: #9aa6b5"/>
     <use xlink:href="#m2a0a58049b" x="170.274726" y="110.816283" style="fill: #ffd27f; stroke: #9aa6b5"/>
     <use xlink:href="#m2a0a58049b" x="183.290186" y="110.816283" style="fill: #ffd27f; stroke: #9aa6b5"/>
     <use xlink:href="#m2a0a58049b" x="205.439283" y="110.816283" style="fill: #ffd27f; stroke: #9aa6b5"/>
    </g>
   </g>
  </g>
 </g>
 <defs>
  <clipPath id="pa454f0f633">
   <rect x="2.88" y="2.88" width="279" height="110.88"/>
  </clipPath>
 </defs>
</svg>
