<?xml version="1.0" encoding="utf-8" standalone="no"?>
<!DOCTYPE svg PUBLIC "-//W3C//DTD SVG 1.1//EN"
  "http://www.w3.org/Graphics/SVG/1.1/DTD/svg11.dtd">
<svg xmlns:xlink="http://www.w3.org/1999/xlink" width="1044.499592pt" height="288.72pt" viewBox="0 0 1044.499592 288.72" xmlns="http://www.w3.org/2000/svg" version="1.1">
 <metadata>
  <rdf:RDF xmlns:dc="http://purl.org/dc/elements/1.1/" xmlns:cc="http://creativecommons.org/ns#" xmlns:rdf="http://www.w3.org/1999/02/22-rdf-syntax-ns#">
   <cc:Work>
    <dc:type rdf:resource="http://purl.org/dc/dcmitype/StillImage"/>
    <dc:date>2026-06-03T17:06:38.874637</dc:date>
    <dc:format>image/svg+xml</dc:format>
    <dc:creator>
     <cc:Agent>
      <dc:title>Matplotlib v3.9.2, https://matplotlib.org/</dc:title>
     </cc:Agent>
    </dc:creator>
   </cc:Work>
  </rdf:RDF>
 </metadata>
 <defs>
  <style type="text/css">*{stroke-linejoin: round; stroke-linecap: butt}</style>
 </defs>
 <g id="figure_1">
  <g id="patch_1">
   <path d="M 0 288.72 
L 1044.499592 288.72 
L 1044.499592 0 
L 0 0 
L 0 288.72 
z
" style="fill: none"/>
  </g>
  <g id="axes_1">
   <g id="patch_2">
    <path d="M 29.593469 85.577143 
L 85.577143 85.577143 
L 85.577143 29.593469 
L 29.593469 29.593469 
z
" clip-path="url(#p3639fee640)" style="fill: #2a9d8f; stroke: #9ad0f5; stroke-width: 1.3; stroke-linejoin: miter"/>
   </g>
   <g id="patch_3">
    <path d="M 85.577143 85.577143 
L 141.560816 85.577143 
L 141.560816 29.593469 
L 85.577143 29.593469 
z
" clip-path="url(#p3639fee640)" style="fill: #2a9d8f; stroke: #9ad0f5; stroke-width: 1.3; stroke-linejoin: miter"/>
   </g>
   <g id="patch_4">
    <path d="M 141.560816 85.577143 
L 197.54449 85.577143 
L 197.54449 29.593469 
L 141.560816 29.593469 
z
" clip-path="url(#p3639fee640)" style="fill: #2a9d8f; stroke: #9ad0f5; stroke-width: 1.3; stroke-linejoin: miter"/>
   </g>
   <g id="patch_5">
    <path d="M 29.593469 141.560816 
L 85.577143 141.560816 
L 85.577143 85.577143 
L 29.593469 85.577143 
z
" clip-path="url(#p3639fee640)" style="fill: #2a9d8f; stroke: #9ad0f5; stroke-width: 1.3; stroke-linejoin: miter"/>
   </g>
   <g id="patch_6">
    <path d="M 85.577143 141.560816 
L 141.560816 141.560816 
L 141.560816 85.577143 
L 85.577143 85.577143 
z
" clip-path="url(#p3639fee640)" style="fill: #243447; stroke: #9aa6b5; stroke-linejoin: miter"/>
   </g>
   <g id="patch_7">
    <path d="M 141.560816 141.560816 
L 197.54449 141.560816 
L 197.54449 85.577143 
L 141.560816 85.577143 
z
" clip-path="url(#p3639fee640)" style="fill: #2a9d8f; stroke: #9ad0f5; stroke-width: 1.3; stroke-linejoin: miter"/>
   </g>
   <g id="patch_8">
    <path d="M 29.593469 197.54449 
L 85.577143 197.54449 
L 85.577143 141.560816 
L 29.593469 141.560816 
z
" clip-path="url(#p3639fee640)" style="fill: #2a9d8f; stroke: #9ad0f5; stroke-width: 1.3; stroke-linejoin: miter"/>
   </g>
   <g id="patch_9">
    <path d="M 85.577143 197.54449 
L 141.560816 197.54449 
L 141.560816 141.560816 
L 85.577143 141.560816 
z
" clip-path="url(#p3639fee640)" style="fill: #4ea8de; stroke: #9ad0f5; stroke-width: 1.3; stroke-linejoin: miter"/>
   </g>
   <g id="patch_10">
    <path d="M 141.560816 197.54449 
L 197.54449 197.54449 
L 197.54449 141.560816 
L 141.560816 141.560816 
z
" clip-path="url(#p3639fee640)" style="fill: #2a9d8f; stroke: #9ad0f5; stroke-width: 1.3; stroke-linejoin: miter"/>
   </g>
   <g id="patch_11">
    <path d="M 287.118367 85.577143 
L 343.102041 85.577143 
L 343.102041 29.593469 
L 287.118367 29.593469 
z
" clip-path="url(#p3639fee640)" style="fill: #2a9d8f; stroke: #9ad0f5; stroke-width: 1.3; stroke-linejoin: miter"/>
   </g>
   <g id="patch_12">
    <path d="M 343.102041 85.577143 
L 399.085714 85.577143 
L 399.085714 29.593469 
L 343.102041 29.593469 
z
" clip-path="url(#p3639fee640)" style="fill: #2a9d8f; stroke: #9ad0f5; stroke-width: 1.3; stroke-linejoin: miter"/>
   </g>
   <g id="patch_13">
    <path d="M 399.085714 85.577143 
L 455.069388 85.577143 
L 455.069388 29.593469 
L 399.085714 29.593469 
z
" clip-path="url(#p3639fee640)" style="fill: #2a9d8f; stroke: #9ad0f5; stroke-width: 1.3; stroke-linejoin: miter"/>
   </g>
   <g id="patch_14">
    <path d="M 287.118367 141.560816 
L 343.102041 141.560816 
L 343.102041 85.577143 
L 287.118367 85.577143 
z
" clip-path="url(#p3639fee640)" style="fill: #2a9d8f; stroke: #9ad0f5; stroke-width: 1.3; stroke-linejoin: miter"/>
   </g>
   <g id="patch_15">
    <path d="M 343.102041 141.560816 
L 399.085714 141.560816 
L 399.085714 85.577143 
L 343.102041 85.577143 
z
" clip-path="url(#p3639fee640)" style="fill: #4ea8de; stroke: #9ad0f5; stroke-width: 1.3; stroke-linejoin: miter"/>
   </g>
   <g id="patch_16">
    <path d="M 399.085714 141.560816 
L 455.069388 141.560816 
L 455.069388 85.577143 
L 399.085714 85.577143 
z
" clip-path="url(#p3639fee640)" style="fill: #2a9d8f; stroke: #9ad0f5; stroke-width: 1.3; stroke-linejoin: miter"/>
   </g>
   <g id="patch_17">
    <path d="M 287.118367 197.54449 
L 343.102041 197.54449 
L 343.102041 141.560816 
L 287.118367 141.560816 
z
" clip-path="url(#p3639fee640)" style="fill: #2a9d8f; stroke: #9ad0f5; stroke-width: 1.3; stroke-linejoin: miter"/>
   </g>
   <g id="patch_18">
    <path d="M 343.102041 197.54449 
L 399.085714 197.54449 
L 399.085714 141.560816 
L 343.102041 141.560816 
z
" clip-path="url(#p3639fee640)" style="fill: #243447; stroke: #9aa6b5; stroke-linejoin: miter"/>
   </g>
   <g id="patch_19">
    <path d="M 399.085714 197.54449 
L 455.069388 197.54449 
L 455.069388 141.560816 
L 399.085714 141.560816 
z
" clip-path="url(#p3639fee640)" style="fill: #2a9d8f; stroke: #9ad0f5; stroke-width: 1.3; stroke-linejoin: miter"/>
   </g>
   <g id="patch_20">
    <path d="M 589.430204 85.577143 
L 645.413878 85.577143 
L 645.413878 29.593469 
L 589.430204 29.593469 
z
" clip-path="url(#p3639fee640)" style="fill: #2a9d8f; stroke: #9ad0f5; stroke-width: 1.3; stroke-linejoin: miter"/>
   </g>
   <g id="patch_21">
    <path d="M 645.413878 85.577143 
L 701.397551 85.577143 
L 701.397551 29.593469 
L 645.413878 29.593469 
z
" clip-path="url(#p3639fee640)" style="fill: #2a9d8f; stroke: #9ad0f5; stroke-width: 1.3; stroke-linejoin: miter"/>
   </g>
   <g id="patch_22">
    <path d="M 701.397551 85.577143 
L 757.381224 85.577143 
L 757.381224 29.593469 
L 701.397551 29.593469 
z
" clip-path="url(#p3639fee640)" style="fill: #2a9d8f; stroke: #9ad0f5; stroke-width: 1.3; stroke-linejoin: miter"/>
   </g>
   <g id="patch_23">
    <path d="M 589.430204 141.560816 
L 645.413878 141.560816 
L 645.413878 85.577143 
L 589.430204 85.577143 
z
" clip-path="url(#p3639fee640)" style="fill: #2a9d8f; stroke: #9ad0f5; stroke-width: 1.3; stroke-linejoin: miter"/>
   </g>
   <g id="patch_24">
    <path d="M 645.413878 141.560816 
L 701.397551 141.560816 
L 701.397551 85.577143 
L 645.413878 85.577143 
z
" clip-path="url(#p3639fee640)" style="fill: #2a9d8f; stroke: #9ad0f5; stroke-width: 1.3; stroke-linejoin: miter"/>
   </g>
   <g id="patch_25">
    <path d="M 701.397551 141.560816 
L 757.381224 141.560816 
L 757.381224 85.577143 
L 701.397551 85.577143 
z
" clip-path="url(#p3639fee640)" style="fill: #243447; stroke: #9aa6b5; stroke-linejoin: miter"/>
   </g>
   <g id="patch_26">
    <path d="M 589.430204 197.54449 
L 645.413878 197.54449 
L 645.413878 141.560816 
L 589.430204 141.560816 
z
" clip-path="url(#p3639fee640)" style="fill: #2a9d8f; stroke: #9ad0f5; stroke-width: 1.3; stroke-linejoin: miter"/>
   </g>
   <g id="patch_27">
    <path d="M 645.413878 197.54449 
L 701.397551 197.54449 
L 701.397551 141.560816 
L 645.413878 141.560816 
z
" clip-path="url(#p3639fee640)" style="fill: #2a9d8f; stroke: #9ad0f5; stroke-width: 1.3; stroke-linejoin: miter"/>
   </g>
   <g id="patch_28">
    <path d="M 701.397551 197.54449 
L 757.381224 197.54449 
L 757.381224 141.560816 
L 701.397551 141.560816 
z
" clip-path="url(#p3639fee640)" style="fill: #4ea8de; stroke: #9ad0f5; stroke-width: 1.3; stroke-linejoin: miter"/>
   </g>
   <g id="patch_29">
    <path d="M 846.955102 85.577143 
L 902.938776 85.577143 
L 902.938776 29.593469 
L 846.955102 29.593469 
z
" clip-path="url(#p3639fee640)" style="fill: #2a9d8f; stroke: #9ad0f5; stroke-width: 1.3; stroke-linejoin: miter"/>
   </g>
   <g id="patch_30">
    <path d="M 902.938776 85.577143 
L 958.922449 85.577143 
L 958.922449 29.593469 
L 902.938776 29.593469 
z
" clip-path="url(#p3639fee640)" style="fill: #2a9d8f; stroke: #9ad0f5; stroke-width: 1.3; stroke-linejoin: miter"/>
   </g>
   <g id="patch_31">
    <path d="M 958.922449 85.577143 
L 1014.906122 85.577143 
L 1014.906122 29.593469 
L 958.922449 29.593469 
z
" clip-path="url(#p3639fee640)" style="fill: #2a9d8f; stroke: #9ad0f5; stroke-width: 1.3; stroke-linejoin: miter"/>
   </g>
   <g id="patch_32">
    <path d="M 846.955102 141.560816 
L 902.938776 141.560816 
L 902.938776 85.577143 
L 846.955102 85.577143 
z
" clip-path="url(#p3639fee640)" style="fill: #2a9d8f; stroke: #9ad0f5; stroke-width: 1.3; stroke-linejoin: miter"/>
   </g>
   <g id="patch_33">
    <path d="M 902.938776 141.560816 
L 958.922449 141.560816 
L 958.922449 85.577143 
L 902.938776 85.577143 
z
" clip-path="url(#p3639fee640)" style="fill: #2a9d8f; stroke: #9ad0f5; stroke-width: 1.3; stroke-linejoin: miter"/>
   </g>
   <g id="patch_34">
    <path d="M 958.922449 141.560816 
L 1014.906122 141.560816 
L 1014.906122 85.577143 
L 958.922449 85.577143 
z
" clip-path="url(#p3639fee640)" style="fill: #4ea8de; stroke: #9ad0f5; stroke-width: 1.3; stroke-linejoin: miter"/>
   </g>
   <g id="patch_35">
    <path d="M 846.955102 197.54449 
L 902.938776 197.54449 
L 902.938776 141.560816 
L 846.955102 141.560816 
z
" clip-path="url(#p3639fee640)" style="fill: #2a9d8f; stroke: #9ad0f5; stroke-width: 1.3; stroke-linejoin: miter"/>
   </g>
   <g id="patch_36">
    <path d="M 902.938776 197.54449 
L 958.922449 197.54449 
L 958.922449 141.560816 
L 902.938776 141.560816 
z
" clip-path="url(#p3639fee640)" style="fill: #2a9d8f; stroke: #9ad0f5; stroke-width: 1.3; stroke-linejoin: miter"/>
   </g>
   <g id="patch_37">
    <path d="M 958.922449 197.54449 
L 1014.906122 197.54449 
L 1014.906122 141.560816 
L 958.922449 141.560816 
z
" clip-path="url(#p3639fee640)" style="fill: #243447; stroke: #9aa6b5; stroke-linejoin: miter"/>
   </g>
   <g id="text_1">
    <text style="fill: #ffffff; font: 700 27px 'DejaVu Sans'; text-anchor: middle" x="57.585306" y="65.035619" transform="rotate(-0 57.585306 65.035619)">7</text>
   </g>
   <g id="text_2">
    <text style="fill: #ffffff; font: 700 27px 'DejaVu Sans'; text-anchor: middle" x="113.56898" y="65.035619" transform="rotate(-0 113.56898 65.035619)">2</text>
   </g>
   <g id="text_3">
    <text style="fill: #ffffff; font: 700 27px 'DejaVu Sans'; text-anchor: middle" x="169.552653" y="65.035619" transform="rotate(-0 169.552653 65.035619)">4</text>
   </g>
   <g id="text_4">
    <text style="fill: #ffffff; font: 700 27px 'DejaVu Sans'; text-anchor: middle" x="57.585306" y="121.019292" transform="rotate(-0 57.585306 121.019292)">5</text>
   </g>
   <g id="text_5">
    <text style="fill: #ffffff; font: 700 27px 'DejaVu Sans'; text-anchor: middle" x="169.552653" y="121.019292" transform="rotate(-0 169.552653 121.019292)">6</text>
   </g>
   <g id="text_6">
    <text style="fill: #ffffff; font: 700 27px 'DejaVu Sans'; text-anchor: middle" x="57.585306" y="177.002966" transform="rotate(-0 57.585306 177.002966)">8</text>
   </g>
   <g id="text_7">
    <text style="fill: #ffffff; font: 700 27px 'DejaVu Sans'; text-anchor: middle" x="113.56898" y="177.002966" transform="rotate(-0 113.56898 177.002966)">3</text>
   </g>
   <g id="text_8">
    <text style="fill: #ffffff; font: 700 27px 'DejaVu Sans'; text-anchor: middle" x="169.552653" y="177.002966" transform="rotate(-0 169.552653 177.002966)">1</text>
   </g>
   <g id="text_9">
    <text style="fill: #ffffff; font: 700 27px 'DejaVu Sans'; text-anchor: middle" x="315.110204" y="65.035619" transform="rotate(-0 315.110204 65.035619)">7</text>
   </g>
   <g id="text_10">
    <text style="fill: #ffffff; font: 700 27px 'DejaVu Sans'; text-anchor: middle" x="371.093878" y="65.035619" transform="rotate(-0 371.093878 65.035619)">2</text>
   </g>
   <g id="text_11">
    <text style="fill: #ffffff; font: 700 27px 'DejaVu Sans'; text-anchor: middle" x="427.077551" y="65.035619" transform="rotate(-0 427.077551 65.035619)">4</text>
   </g>
   <g id="text_12">
    <text style="fill: #ffffff; font: 700 27px 'DejaVu Sans'; text-anchor: middle" x="315.110204" y="121.019292" transform="rotate(-0 315.110204 121.019292)">5</text>
   </g>
   <g id="text_13">
    <text style="fill: #ffffff; font: 700 27px 'DejaVu Sans'; text-anchor: middle" x="371.093878" y="121.019292" transform="rotate(-0 371.093878 121.019292)">3</text>
   </g>
   <g id="text_14">
    <text style="fill: #ffffff; font: 700 27px 'DejaVu Sans'; text-anchor: middle" x="427.077551" y="121.019292" transform="rotate(-0 427.077551 121.019292)">6</text>
   </g>
   <g id="text_15">
    <text style="fill: #ffffff; font: 700 27px 'DejaVu Sans'; text-anchor: middle" x="315.110204" y="177.002966" transform="rotate(-0 315.110204 177.002966)">8</text>
   </g>
   <g id="text_16">
    <text style="fill: #ffffff; font: 700 27px 'DejaVu Sans'; text-anchor: middle" x="427.077551" y="177.002966" transform="rotate(-0 427.077551 177.002966)">1</text>
   </g>
   <g id="text_17">
    <text style="fill: #ffffff; font: 700 27px 'DejaVu Sans'; text-anchor: middle" x="617.422041" y="65.035619" transform="rotate(-0 617.422041 65.035619)">1</text>
   </g>
   <g id="text_18">
    <text style="fill: #ffffff; font: 700 27px 'DejaVu Sans'; text-anchor: middle" x="673.405714" y="65.035619" transform="rotate(-0 673.405714 65.035619)">2</text>
   </g>
   <g id="text_19">
    <text style="fill: #ffffff; font: 700 27px 'DejaVu Sans'; text-anchor: middle" x="729.389388" y="65.035619" transform="rotate(-0 729.389388 65.035619)">3</text>
   </g>
   <g id="text_20">
    <text style="fill: #ffffff; font: 700 27px 'DejaVu Sans'; text-anchor: middle" x="617.422041" y="121.019292" transform="rotate(-0 617.422041 121.019292)">4</text>
   </g>
   <g id="text_21">
    <text style="fill: #ffffff; font: 700 27px 'DejaVu Sans'; text-anchor: middle" x="673.405714" y="121.019292" transform="rotate(-0 673.405714 121.019292)">5</text>
   </g>
   <g id="text_22">
    <text style="fill: #ffffff; font: 700 27px 'DejaVu Sans'; text-anchor: middle" x="617.422041" y="177.002966" transform="rotate(-0 617.422041 177.002966)">7</text>
   </g>
   <g id="text_23">
    <text style="fill: #ffffff; font: 700 27px 'DejaVu Sans'; text-anchor: middle" x="673.405714" y="177.002966" transform="rotate(-0 673.405714 177.002966)">8</text>
   </g>
   <g id="text_24">
    <text style="fill: #ffffff; font: 700 27px 'DejaVu Sans'; text-anchor: middle" x="729.389388" y="177.002966" transform="rotate(-0 729.389388 177.002966)">6</text>
   </g>
   <g id="text_25">
    <text style="fill: #ffffff; font: 700 27px 'DejaVu Sans'; text-anchor: middle" x="874.946939" y="65.035619" transform="rotate(-0 874.946939 65.035619)">1</text>
   </g>
   <g id="text_26">
    <text style="fill: #ffffff; font: 700 27px 'DejaVu Sans'; text-anchor: middle" x="930.930612" y="65.035619" transform="rotate(-0 930.930612 65.035619)">2</text>
   </g>
   <g id="text_27">
    <text style="fill: #ffffff; font: 700 27px 'DejaVu Sans'; text-anchor: middle" x="986.914286" y="65.035619" transform="rotate(-0 986.914286 65.035619)">3</text>
   </g>
   <g id="text_28">
    <text style="fill: #ffffff; font: 700 27px 'DejaVu Sans'; text-anchor: middle" x="874.946939" y="121.019292" transform="rotate(-0 874.946939 121.019292)">4</text>
   </g>
   <g id="text_29">
    <text style="fill: #ffffff; font: 700 27px 'DejaVu Sans'; text-anchor: middle" x="930.930612" y="121.019292" transform="rotate(-0 930.930612 121.019292)">5</text>
   </g>
   <g id="text_30">
    <text style="fill: #ffffff; font: 700 27px 'DejaVu Sans'; text-anchor: middle" x="986.914286" y="121.019292" transform="rotate(-0 986.914286 121.019292)">6</text>
   </g>
   <g id="text_31">
    <text style="fill: #ffffff; font: 700 27px 'DejaVu Sans'; text-anchor: middle" x="874.946939" y="177.002966" transform="rotate(-0 874.946939 177.002966)">7</text>
   </g>
   <g id="text_32">
    <text style="fill: #ffffff; font: 700 27px 'DejaVu Sans'; text-anchor: middle" x="930.930612" y="177.002966" transform="rotate(-0 930.930612 177.002966)">8</text>
   </g>
   <g id="text_33">
    <text style="fill: #ff8c42; font: 700 15px 'DejaVu Sans'; text-anchor: middle" x="242.331429" y="82.457612" transform="rotate(-0 242.331429 82.457612)">one move</text>
   </g>
   <g id="text_34">
    <text style="fill: #ff8c42; font: 700 15px 'DejaVu Sans'; text-anchor: middle" x="802.168163" y="82.457612" transform="rotate(-0 802.168163 82.457612)">last move</text>
   </g>
   <g id="text_35">
    <text style="fill: #6b7585; font: 700 42px 'DejaVu Sans'; text-anchor: middle" x="522.249796" y="125.158355" transform="rotate(-0 522.249796 125.158355)">· · ·</text>
   </g>
   <g id="text_36">
    <text style="fill: #7fbf7b; font: 700 21px 'DejaVu Sans'; text-anchor: middle" x="113.56898" y="255.488964" transform="rotate(-0 113.56898 255.488964)">start</text>
   </g>
   <g id="text_37">
    <text style="fill: #e69138; font: 700 21px 'DejaVu Sans'; text-anchor: middle" x="930.930612" y="255.324901" transform="rotate(-0 930.930612 255.324901)">target</text>
   </g>
   <g id="patch_38">
    <path d="M 202.345165 113.56898 
Q 242.332766 113.56898 278.407248 113.56898 
" style="fill: none; stroke: #ff8c42; stroke-width: 3.5; stroke-linecap: round"/>
    <path d="M 268.007248 108.36898 
L 278.407248 113.56898 
L 268.007248 118.76898 
z
" style="fill: #ff8c42; stroke: #ff8c42; stroke-width: 3.5; stroke-linecap: round"/>
   </g>
   <g id="patch_39">
    <path d="M 762.1819 113.56898 
Q 802.1695 113.56898 838.243982 113.56898 
" style="fill: none; stroke: #ff8c42; stroke-width: 3.5; stroke-linecap: round"/>
    <path d="M 827.843982 108.36898 
L 838.243982 113.56898 
L 827.843982 118.76898 
z
" style="fill: #ff8c42; stroke: #ff8c42; stroke-width: 3.5; stroke-linecap: round"/>
   </g>
   <g id="patch_40">
    <path d="M 26.794286 200.343673 
L 200.343673 200.343673 
L 200.343673 26.794286 
L 26.794286 26.794286 
L 26.794286 200.343673 
z
" clip-path="url(#p3639fee640)" style="fill: none; stroke: #7fbf7b; stroke-width: 3; stroke-linejoin: miter"/>
   </g>
   <g id="patch_41">
    <path d="M 844.155918 200.343673 
L 1017.705306 200.343673 
L 1017.705306 26.794286 
L 844.155918 26.794286 
L 844.155918 200.343673 
z
" clip-path="url(#p3639fee640)" style="fill: none; stroke: #e69138; stroke-width: 3; stroke-linejoin: miter"/>
   </g>
   <g id="patch_42">
    <path d="M 113.56898 157.555663 
Q 113.56898 141.56136 113.56898 129.144765 
" style="fill: none; stroke: #ffffff; stroke-width: 3.2; stroke-linecap: round"/>
    <path d="M 109.16898 137.944765 
L 113.56898 129.144765 
L 117.96898 137.944765 
z
" style="fill: #ffffff; stroke: #ffffff; stroke-width: 3.2; stroke-linecap: round"/>
   </g>
   <g id="patch_43">
    <path d="M 729.389388 157.555663 
Q 729.389388 141.56136 729.389388 129.144765 
" style="fill: none; stroke: #ffffff; stroke-width: 3.2; stroke-linecap: round"/>
    <path d="M 724.989388 137.944765 
L 729.389388 129.144765 
L 733.789388 137.944765 
z
" style="fill: #ffffff; stroke: #ffffff; stroke-width: 3.2; stroke-linecap: round"/>
   </g>
  </g>
 </g>
 <defs>
  <clipPath id="p3639fee640">
   <rect x="7.2" y="7.2" width="1030.099592" height="274.32"/>
  </clipPath>
 </defs>
</svg>
