<?xml version="1.0" encoding="utf-8" standalone="no"?>
<!DOCTYPE svg PUBLIC "-//W3C//DTD SVG 1.1//EN"
  "http://www.w3.org/Graphics/SVG/1.1/DTD/svg11.dtd">
<svg xmlns:xlink="http://www.w3.org/1999/xlink" width="671.1195pt" height="366.6pt" viewBox="0 0 671.1195 366.6" xmlns="http://www.w3.org/2000/svg" version="1.1">
 <metadata>
  <rdf:RDF xmlns:dc="http://purl.org/dc/elements/1.1/" xmlns:cc="http://creativecommons.org/ns#" xmlns:rdf="http://www.w3.org/1999/02/22-rdf-syntax-ns#">
   <cc:Work>
    <dc:type rdf:resource="http://purl.org/dc/dcmitype/StillImage"/>
    <dc:date>2026-06-03T15:31:52.913386</dc:date>
    <dc:format>image/svg+xml</dc:format>
    <dc:creator>
     <cc:Agent>
      <dc:title>Matplotlib v3.9.2, https://matplotlib.org/</dc:title>
     </cc:Agent>
    </dc:creator>
   </cc:Work>
  </rdf:RDF>
 </metadata>
 <defs>
  <style type="text/css">*{stroke-linejoin: round; stroke-linecap: butt}</style>
 </defs>
 <g id="figure_1">
  <g id="patch_1">
   <path d="M 0 366.6 
L 671.1195 366.6 
L 671.1195 0 
L 0 0 
L 0 366.6 
z
" style="fill: none"/>
  </g>
  <g id="axes_1">
   <g id="line2d_1">
    <path d="M 187.109367 187.98566 
L 271.817801 200.538113 
" clip-path="url(#p8bbde679a0)" style="fill: none; stroke: #9aa6b5; stroke-width: 2; stroke-linecap: round"/>
   </g>
   <g id="line2d_2">
    <path d="M 308.121416 100.118491 
L 423.082861 118.94717 
" clip-path="url(#p8bbde679a0)" style="fill: none; stroke: #9aa6b5; stroke-width: 2; stroke-linecap: round"/>
   </g>
   <g id="line2d_3">
    <path d="M 308.121416 100.118491 
L 271.817801 200.538113 
" clip-path="url(#p8bbde679a0)" style="fill: none; stroke: #9aa6b5; stroke-width: 2; stroke-linecap: round"/>
   </g>
   <g id="line2d_4">
    <path d="M 308.121416 100.118491 
L 398.880452 300.957736 
" clip-path="url(#p8bbde679a0)" style="fill: none; stroke: #9aa6b5; stroke-width: 2; stroke-linecap: round"/>
   </g>
   <g id="line2d_5">
    <path d="M 423.082861 118.94717 
L 471.487681 219.366792 
" clip-path="url(#p8bbde679a0)" style="fill: none; stroke: #9aa6b5; stroke-width: 2; stroke-linecap: round"/>
   </g>
   <g id="line2d_6">
    <path d="M 471.487681 219.366792 
L 398.880452 300.957736 
" clip-path="url(#p8bbde679a0)" style="fill: none; stroke: #9aa6b5; stroke-width: 2; stroke-linecap: round"/>
   </g>
   <g id="line2d_7">
    <path d="M 398.880452 300.957736 
L 283.919006 294.681509 
" clip-path="url(#p8bbde679a0)" style="fill: none; stroke: #9aa6b5; stroke-width: 2; stroke-linecap: round"/>
   </g>
   <g id="line2d_8">
    <path d="M 283.919006 294.681509 
L 271.817801 200.538113 
" clip-path="url(#p8bbde679a0)" style="fill: none; stroke: #9aa6b5; stroke-width: 2; stroke-linecap: round"/>
   </g>
   <g id="line2d_9">
    <path d="M 84.249127 118.94717 
L 187.109367 87.566038 
" clip-path="url(#p8bbde679a0)" style="fill: none; stroke: #d1495b; stroke-width: 3.6; stroke-linecap: round"/>
   </g>
   <g id="line2d_10">
    <path d="M 84.249127 118.94717 
L 187.109367 187.98566 
" clip-path="url(#p8bbde679a0)" style="fill: none; stroke: #d1495b; stroke-width: 3.6; stroke-linecap: round"/>
   </g>
   <g id="line2d_11">
    <path d="M 187.109367 87.566038 
L 187.109367 187.98566 
" clip-path="url(#p8bbde679a0)" style="fill: none; stroke: #d1495b; stroke-width: 3.6; stroke-linecap: round"/>
   </g>
   <g id="patch_2">
    <path d="M 63.677078 139.658717 
L 104.821175 139.658717 
Q 114.502139 139.658717 114.502139 129.616755 
L 114.502139 108.277585 
Q 114.502139 98.235623 104.821175 98.235623 
L 63.677078 98.235623 
Q 53.996114 98.235623 53.996114 108.277585 
L 53.996114 129.616755 
Q 53.996114 139.658717 63.677078 139.658717 
z
" clip-path="url(#p8bbde679a0)" style="fill: #39526d; stroke: #d1495b; stroke-width: 2.8; stroke-linejoin: miter"/>
   </g>
   <g id="patch_3">
    <path d="M 166.537319 108.277585 
L 207.681416 108.277585 
Q 217.36238 108.277585 217.36238 98.235623 
L 217.36238 76.896453 
Q 217.36238 66.854491 207.681416 66.854491 
L 166.537319 66.854491 
Q 156.856355 66.854491 156.856355 76.896453 
L 156.856355 98.235623 
Q 156.856355 108.277585 166.537319 108.277585 
z
" clip-path="url(#p8bbde679a0)" style="fill: #39526d; stroke: #d1495b; stroke-width: 2.8; stroke-linejoin: miter"/>
   </g>
   <g id="patch_4">
    <path d="M 166.537319 208.697208 
L 207.681416 208.697208 
Q 217.36238 208.697208 217.36238 198.655245 
L 217.36238 177.316075 
Q 217.36238 167.274113 207.681416 167.274113 
L 166.537319 167.274113 
Q 156.856355 167.274113 156.856355 177.316075 
L 156.856355 198.655245 
Q 156.856355 208.697208 166.537319 208.697208 
z
" clip-path="url(#p8bbde679a0)" style="fill: #39526d; stroke: #d1495b; stroke-width: 2.8; stroke-linejoin: miter"/>
   </g>
   <g id="patch_5">
    <path d="M 287.549367 120.830038 
L 328.693464 120.830038 
Q 338.374428 120.830038 338.374428 110.788075 
L 338.374428 89.448906 
Q 338.374428 79.406943 328.693464 79.406943 
L 287.549367 79.406943 
Q 277.868404 79.406943 277.868404 89.448906 
L 277.868404 110.788075 
Q 277.868404 120.830038 287.549367 120.830038 
z
" clip-path="url(#p8bbde679a0)" style="fill: #39526d; stroke: #9fb0c0; stroke-width: 1.2; stroke-linejoin: miter"/>
   </g>
   <g id="patch_6">
    <path d="M 402.510813 139.658717 
L 443.65491 139.658717 
Q 453.335873 139.658717 453.335873 129.616755 
L 453.335873 108.277585 
Q 453.335873 98.235623 443.65491 98.235623 
L 402.510813 98.235623 
Q 392.829849 98.235623 392.829849 108.277585 
L 392.829849 129.616755 
Q 392.829849 139.658717 402.510813 139.658717 
z
" clip-path="url(#p8bbde679a0)" style="fill: #39526d; stroke: #9fb0c0; stroke-width: 1.2; stroke-linejoin: miter"/>
   </g>
   <g id="patch_7">
    <path d="M 450.915633 240.07834 
L 492.059729 240.07834 
Q 501.740693 240.07834 501.740693 230.036377 
L 501.740693 208.697208 
Q 501.740693 198.655245 492.059729 198.655245 
L 450.915633 198.655245 
Q 441.234669 198.655245 441.234669 208.697208 
L 441.234669 230.036377 
Q 441.234669 240.07834 450.915633 240.07834 
z
" clip-path="url(#p8bbde679a0)" style="fill: #39526d; stroke: #9fb0c0; stroke-width: 1.2; stroke-linejoin: miter"/>
   </g>
   <g id="patch_8">
    <path d="M 378.308404 321.669283 
L 419.4525 321.669283 
Q 429.133464 321.669283 429.133464 311.627321 
L 429.133464 290.288151 
Q 429.133464 280.246189 419.4525 280.246189 
L 378.308404 280.246189 
Q 368.62744 280.246189 368.62744 290.288151 
L 368.62744 311.627321 
Q 368.62744 321.669283 378.308404 321.669283 
z
" clip-path="url(#p8bbde679a0)" style="fill: #39526d; stroke: #9fb0c0; stroke-width: 1.2; stroke-linejoin: miter"/>
   </g>
   <g id="patch_9">
    <path d="M 263.346958 315.393057 
L 304.491054 315.393057 
Q 314.172018 315.393057 314.172018 305.351094 
L 314.172018 284.011925 
Q 314.172018 273.969962 304.491054 273.969962 
L 263.346958 273.969962 
Q 253.665994 273.969962 253.665994 284.011925 
L 253.665994 305.351094 
Q 253.665994 315.393057 263.346958 315.393057 
z
" clip-path="url(#p8bbde679a0)" style="fill: #39526d; stroke: #9fb0c0; stroke-width: 1.2; stroke-linejoin: miter"/>
   </g>
   <g id="patch_10">
    <path d="M 251.245753 221.24966 
L 292.389849 221.24966 
Q 302.070813 221.24966 302.070813 211.207698 
L 302.070813 189.868528 
Q 302.070813 179.826566 292.389849 179.826566 
L 251.245753 179.826566 
Q 241.564789 179.826566 241.564789 189.868528 
L 241.564789 211.207698 
Q 241.564789 221.24966 251.245753 221.24966 
z
" clip-path="url(#p8bbde679a0)" style="fill: #39526d; stroke: #9fb0c0; stroke-width: 1.2; stroke-linejoin: miter"/>
   </g>
   <g id="text_1">
    <text style="fill: #e6e6e6; font: 11.5px 'DejaVu Sans'" transform="translate(2.453398 12.202516)">Kidney exchange: each node is a (donor D, patient R) pair, each edge a feasible 2-way swap</text>
    <text style="fill: #e6e6e6; font: 11.5px 'DejaVu Sans'" transform="translate(90.819219 25.08)">Odd cycle P0-P1-P2 (red) makes the swap graph non-bipartite</text>
   </g>
   <g id="PathCollection_1">
    <defs>
     <path id="m9fe11d487e" d="M 0 10.368221 
C 2.749684 10.368221 5.387119 9.27576 7.331439 7.331439 
C 9.27576 5.387119 10.368221 2.749684 10.368221 0 
C 10.368221 -2.749684 9.27576 -5.387119 7.331439 -7.331439 
C 5.387119 -9.27576 2.749684 -10.368221 0 -10.368221 
C -2.749684 -10.368221 -5.387119 -9.27576 -7.331439 -7.331439 
C -9.27576 -5.387119 -10.368221 -2.749684 -10.368221 0 
C -10.368221 2.749684 -9.27576 5.387119 -7.331439 7.331439 
C -5.387119 9.27576 -2.749684 10.368221 0 10.368221 
z
" style="stroke: #2b3a2b; stroke-width: 1.2"/>
    </defs>
    <g clip-path="url(#p8bbde679a0)">
     <use xlink:href="#m9fe11d487e" x="66.097319" y="118.94717" style="fill: #7fbf7b; stroke: #2b3a2b; stroke-width: 1.2"/>
    </g>
   </g>
   <g id="PathCollection_2">
    <defs>
     <path id="md4fa00eecb" d="M 0 10.368221 
C 2.749684 10.368221 5.387119 9.27576 7.331439 7.331439 
C 9.27576 5.387119 10.368221 2.749684 10.368221 0 
C 10.368221 -2.749684 9.27576 -5.387119 7.331439 -7.331439 
C 5.387119 -9.27576 2.749684 -10.368221 0 -10.368221 
C -2.749684 -10.368221 -5.387119 -9.27576 -7.331439 -7.331439 
C -9.27576 -5.387119 -10.368221 -2.749684 -10.368221 0 
C -10.368221 2.749684 -9.27576 5.387119 -7.331439 7.331439 
C -5.387119 9.27576 -2.749684 10.368221 0 10.368221 
z
" style="stroke: #e69138; stroke-width: 2.6"/>
    </defs>
    <g clip-path="url(#p8bbde679a0)">
     <use xlink:href="#md4fa00eecb" x="102.400934" y="118.94717" style="fill: #ffffff; stroke: #e69138; stroke-width: 2.6"/>
    </g>
   </g>
   <g id="PathCollection_3">
    <g clip-path="url(#p8bbde679a0)">
     <use xlink:href="#m9fe11d487e" x="168.95756" y="87.566038" style="fill: #7fbf7b; stroke: #2b3a2b; stroke-width: 1.2"/>
    </g>
   </g>
   <g id="PathCollection_4">
    <g clip-path="url(#p8bbde679a0)">
     <use xlink:href="#md4fa00eecb" x="205.261175" y="87.566038" style="fill: #ffffff; stroke: #e69138; stroke-width: 2.6"/>
    </g>
   </g>
   <g id="PathCollection_5">
    <g clip-path="url(#p8bbde679a0)">
     <use xlink:href="#m9fe11d487e" x="168.95756" y="187.98566" style="fill: #7fbf7b; stroke: #2b3a2b; stroke-width: 1.2"/>
    </g>
   </g>
   <g id="PathCollection_6">
    <g clip-path="url(#p8bbde679a0)">
     <use xlink:href="#md4fa00eecb" x="205.261175" y="187.98566" style="fill: #ffffff; stroke: #e69138; stroke-width: 2.6"/>
    </g>
   </g>
   <g id="PathCollection_7">
    <g clip-path="url(#p8bbde679a0)">
     <use xlink:href="#m9fe11d487e" x="289.969608" y="100.118491" style="fill: #7fbf7b; stroke: #2b3a2b; stroke-width: 1.2"/>
    </g>
   </g>
   <g id="PathCollection_8">
    <g clip-path="url(#p8bbde679a0)">
     <use xlink:href="#md4fa00eecb" x="326.273223" y="100.118491" style="fill: #ffffff; stroke: #e69138; stroke-width: 2.6"/>
    </g>
   </g>
   <g id="PathCollection_9">
    <g clip-path="url(#p8bbde679a0)">
     <use xlink:href="#m9fe11d487e" x="404.931054" y="118.94717" style="fill: #7fbf7b; stroke: #2b3a2b; stroke-width: 1.2"/>
    </g>
   </g>
   <g id="PathCollection_10">
    <g clip-path="url(#p8bbde679a0)">
     <use xlink:href="#md4fa00eecb" x="441.234669" y="118.94717" style="fill: #ffffff; stroke: #e69138; stroke-width: 2.6"/>
    </g>
   </g>
   <g id="PathCollection_11">
    <g clip-path="url(#p8bbde679a0)">
     <use xlink:href="#m9fe11d487e" x="453.335873" y="219.366792" style="fill: #7fbf7b; stroke: #2b3a2b; stroke-width: 1.2"/>
    </g>
   </g>
   <g id="PathCollection_12">
    <g clip-path="url(#p8bbde679a0)">
     <use xlink:href="#md4fa00eecb" x="489.639488" y="219.366792" style="fill: #ffffff; stroke: #e69138; stroke-width: 2.6"/>
    </g>
   </g>
   <g id="PathCollection_13">
    <g clip-path="url(#p8bbde679a0)">
     <use xlink:href="#m9fe11d487e" x="380.728645" y="300.957736" style="fill: #7fbf7b; stroke: #2b3a2b; stroke-width: 1.2"/>
    </g>
   </g>
   <g id="PathCollection_14">
    <g clip-path="url(#p8bbde679a0)">
     <use xlink:href="#md4fa00eecb" x="417.032259" y="300.957736" style="fill: #ffffff; stroke: #e69138; stroke-width: 2.6"/>
    </g>
   </g>
   <g id="PathCollection_15">
    <g clip-path="url(#p8bbde679a0)">
     <use xlink:href="#m9fe11d487e" x="265.767199" y="294.681509" style="fill: #7fbf7b; stroke: #2b3a2b; stroke-width: 1.2"/>
    </g>
   </g>
   <g id="PathCollection_16">
    <g clip-path="url(#p8bbde679a0)">
     <use xlink:href="#md4fa00eecb" x="302.070813" y="294.681509" style="fill: #ffffff; stroke: #e69138; stroke-width: 2.6"/>
    </g>
   </g>
   <g id="PathCollection_17">
    <g clip-path="url(#p8bbde679a0)">
     <use xlink:href="#m9fe11d487e" x="253.665994" y="200.538113" style="fill: #7fbf7b; stroke: #2b3a2b; stroke-width: 1.2"/>
    </g>
   </g>
   <g id="PathCollection_18">
    <g clip-path="url(#p8bbde679a0)">
     <use xlink:href="#md4fa00eecb" x="289.969608" y="200.538113" style="fill: #ffffff; stroke: #e69138; stroke-width: 2.6"/>
    </g>
   </g>
   <g id="text_2">
    <text style="fill: #ffffff; font: 700 8.5px 'DejaVu Sans'; text-anchor: middle" x="66.097319" y="121.292639" transform="rotate(-0 66.097319 121.292639)">D</text>
   </g>
   <g id="text_3">
    <text style="fill: #e69138; font: 700 8.5px 'DejaVu Sans'; text-anchor: middle" x="102.400934" y="121.292639" transform="rotate(-0 102.400934 121.292639)">R</text>
   </g>
   <g id="text_4">
    <text style="fill: #ffffff; font: 700 8.5px 'DejaVu Sans'; text-anchor: middle" x="168.95756" y="89.911506" transform="rotate(-0 168.95756 89.911506)">D</text>
   </g>
   <g id="text_5">
    <text style="fill: #e69138; font: 700 8.5px 'DejaVu Sans'; text-anchor: middle" x="205.261175" y="89.911506" transform="rotate(-0 205.261175 89.911506)">R</text>
   </g>
   <g id="text_6">
    <text style="fill: #ffffff; font: 700 8.5px 'DejaVu Sans'; text-anchor: middle" x="168.95756" y="190.331129" transform="rotate(-0 168.95756 190.331129)">D</text>
   </g>
   <g id="text_7">
    <text style="fill: #e69138; font: 700 8.5px 'DejaVu Sans'; text-anchor: middle" x="205.261175" y="190.331129" transform="rotate(-0 205.261175 190.331129)">R</text>
   </g>
   <g id="text_8">
    <text style="fill: #ffffff; font: 700 8.5px 'DejaVu Sans'; text-anchor: middle" x="289.969608" y="102.463959" transform="rotate(-0 289.969608 102.463959)">D</text>
   </g>
   <g id="text_9">
    <text style="fill: #e69138; font: 700 8.5px 'DejaVu Sans'; text-anchor: middle" x="326.273223" y="102.463959" transform="rotate(-0 326.273223 102.463959)">R</text>
   </g>
   <g id="text_10">
    <text style="fill: #ffffff; font: 700 8.5px 'DejaVu Sans'; text-anchor: middle" x="404.931054" y="121.292639" transform="rotate(-0 404.931054 121.292639)">D</text>
   </g>
   <g id="text_11">
    <text style="fill: #e69138; font: 700 8.5px 'DejaVu Sans'; text-anchor: middle" x="441.234669" y="121.292639" transform="rotate(-0 441.234669 121.292639)">R</text>
   </g>
   <g id="text_12">
    <text style="fill: #ffffff; font: 700 8.5px 'DejaVu Sans'; text-anchor: middle" x="453.335873" y="221.712261" transform="rotate(-0 453.335873 221.712261)">D</text>
   </g>
   <g id="text_13">
    <text style="fill: #e69138; font: 700 8.5px 'DejaVu Sans'; text-anchor: middle" x="489.639488" y="221.712261" transform="rotate(-0 489.639488 221.712261)">R</text>
   </g>
   <g id="text_14">
    <text style="fill: #ffffff; font: 700 8.5px 'DejaVu Sans'; text-anchor: middle" x="380.728645" y="303.303205" transform="rotate(-0 380.728645 303.303205)">D</text>
   </g>
   <g id="text_15">
    <text style="fill: #e69138; font: 700 8.5px 'DejaVu Sans'; text-anchor: middle" x="417.032259" y="303.303205" transform="rotate(-0 417.032259 303.303205)">R</text>
   </g>
   <g id="text_16">
    <text style="fill: #ffffff; font: 700 8.5px 'DejaVu Sans'; text-anchor: middle" x="265.767199" y="297.026978" transform="rotate(-0 265.767199 297.026978)">D</text>
   </g>
   <g id="text_17">
    <text style="fill: #e69138; font: 700 8.5px 'DejaVu Sans'; text-anchor: middle" x="302.070813" y="297.026978" transform="rotate(-0 302.070813 297.026978)">R</text>
   </g>
   <g id="text_18">
    <text style="fill: #ffffff; font: 700 8.5px 'DejaVu Sans'; text-anchor: middle" x="253.665994" y="202.883582" transform="rotate(-0 253.665994 202.883582)">D</text>
   </g>
   <g id="text_19">
    <text style="fill: #e69138; font: 700 8.5px 'DejaVu Sans'; text-anchor: middle" x="289.969608" y="202.883582" transform="rotate(-0 289.969608 202.883582)">R</text>
   </g>
   <g id="legend_1">
    <g id="patch_11">
     <path d="M 526.7145 73.410938 
L 665.836219 73.410938 
Q 667.636219 73.410938 667.636219 71.610938 
L 667.636219 32.88 
Q 667.636219 31.08 665.836219 31.08 
L 526.7145 31.08 
Q 524.9145 31.08 524.9145 32.88 
L 524.9145 71.610938 
Q 524.9145 73.410938 526.7145 73.410938 
z
" style="fill: #1a2433; opacity: 0.8; stroke: #9aa6b5; stroke-linejoin: miter"/>
    </g>
    <g id="line2d_12">
     <path d="M 528.5145 38.368594 
L 537.5145 38.368594 
L 546.5145 38.368594 
" style="fill: none; stroke: #ffffff; stroke-width: 1.5; stroke-linecap: square"/>
     <defs>
      <path id="m270ccdb383" d="M 0 6 
C 1.591219 6 3.117479 5.367802 4.242641 4.242641 
C 5.367802 3.117479 6 1.591219 6 0 
C 6 -1.591219 5.367802 -3.117479 4.242641 -4.242641 
C 3.117479 -5.367802 1.591219 -6 0 -6 
C -1.591219 -6 -3.117479 -5.367802 -4.242641 -4.242641 
C -5.367802 -3.117479 -6 -1.591219 -6 0 
C -6 1.591219 -5.367802 3.117479 -4.242641 4.242641 
C -3.117479 5.367802 -1.591219 6 0 6 
z
" style="stroke: #2b3a2b"/>
     </defs>
     <g>
      <use xlink:href="#m270ccdb383" x="537.5145" y="38.368594" style="fill: #7fbf7b; stroke: #2b3a2b"/>
     </g>
    </g>
    <g id="text_20">
     <text style="fill: #e6e6e6; font: 9px 'DejaVu Sans'; text-anchor: start" x="553.7145" y="41.518594" transform="rotate(-0 553.7145 41.518594)">donor (gives a kidney)</text>
    </g>
    <g id="line2d_13">
     <path d="M 528.5145 51.578906 
L 537.5145 51.578906 
L 546.5145 51.578906 
" style="fill: none; stroke: #ffffff; stroke-width: 1.5; stroke-linecap: square"/>
     <defs>
      <path id="m566bf19b54" d="M 0 6 
C 1.591219 6 3.117479 5.367802 4.242641 4.242641 
C 5.367802 3.117479 6 1.591219 6 0 
C 6 -1.591219 5.367802 -3.117479 4.242641 -4.242641 
C 3.117479 -5.367802 1.591219 -6 0 -6 
C -1.591219 -6 -3.117479 -5.367802 -4.242641 -4.242641 
C -5.367802 -3.117479 -6 -1.591219 -6 0 
C -6 1.591219 -5.367802 3.117479 -4.242641 4.242641 
C -3.117479 5.367802 -1.591219 6 0 6 
z
" style="stroke: #e69138; stroke-width: 2.4"/>
     </defs>
     <g>
      <use xlink:href="#m566bf19b54" x="537.5145" y="51.578906" style="fill: #ffffff; stroke: #e69138; stroke-width: 2.4"/>
     </g>
    </g>
    <g id="text_21">
     <text style="fill: #e6e6e6; font: 9px 'DejaVu Sans'; text-anchor: start" x="553.7145" y="54.728906" transform="rotate(-0 553.7145 54.728906)">patient (needs a kidney)</text>
    </g>
    <g id="line2d_14">
     <path d="M 528.5145 64.789219 
L 537.5145 64.789219 
L 546.5145 64.789219 
" style="fill: none; stroke: #d1495b; stroke-width: 3.2; stroke-linecap: square"/>
    </g>
    <g id="text_22">
     <text style="fill: #e6e6e6; font: 9px 'DejaVu Sans'; text-anchor: start" x="553.7145" y="67.939219" transform="rotate(-0 553.7145 67.939219)">odd cycle (not bipartite)</text>
    </g>
   </g>
   <g id="text_23">
    <text style="fill: #e6e6e6; font: 700 10.5px 'DejaVu Sans'; text-anchor: middle" x="84.249127" y="87.265234" transform="rotate(-0 84.249127 87.265234)">P0</text>
   </g>
   <g id="text_24">
    <text style="fill: #e6e6e6; font: 700 10.5px 'DejaVu Sans'; text-anchor: middle" x="187.109367" y="55.884102" transform="rotate(-0 187.109367 55.884102)">P1</text>
   </g>
   <g id="text_25">
    <text style="fill: #e6e6e6; font: 700 10.5px 'DejaVu Sans'; text-anchor: middle" x="187.109367" y="156.303724" transform="rotate(-0 187.109367 156.303724)">P2</text>
   </g>
   <g id="text_26">
    <text style="fill: #e6e6e6; font: 700 10.5px 'DejaVu Sans'; text-anchor: middle" x="308.121416" y="68.436555" transform="rotate(-0 308.121416 68.436555)">P3</text>
   </g>
   <g id="text_27">
    <text style="fill: #e6e6e6; font: 700 10.5px 'DejaVu Sans'; text-anchor: middle" x="423.082861" y="87.265234" transform="rotate(-0 423.082861 87.265234)">P4</text>
   </g>
   <g id="text_28">
    <text style="fill: #e6e6e6; font: 700 10.5px 'DejaVu Sans'; text-anchor: middle" x="471.487681" y="187.684856" transform="rotate(-0 471.487681 187.684856)">P5</text>
   </g>
   <g id="text_29">
    <text style="fill: #e6e6e6; font: 700 10.5px 'DejaVu Sans'; text-anchor: middle" x="398.880452" y="269.2758" transform="rotate(-0 398.880452 269.2758)">P6</text>
   </g>
   <g id="text_30">
    <text style="fill: #e6e6e6; font: 700 10.5px 'DejaVu Sans'; text-anchor: middle" x="283.919006" y="262.999573" transform="rotate(-0 283.919006 262.999573)">P7</text>
   </g>
   <g id="text_31">
    <text style="fill: #e6e6e6; font: 700 10.5px 'DejaVu Sans'; text-anchor: middle" x="271.817801" y="168.856177" transform="rotate(-0 271.817801 168.856177)">P8</text>
   </g>
   <g id="text_32">
    <g id="patch_12">
     <path d="M 132.816122 108.96176 
L 138.542372 108.96176 
Q 139.892372 108.96176 139.892372 107.61176 
L 139.892372 98.901448 
Q 139.892372 97.551448 138.542372 97.551448 
L 132.816122 97.551448 
Q 131.466122 97.551448 131.466122 98.901448 
L 131.466122 107.61176 
Q 131.466122 108.96176 132.816122 108.96176 
z
" style="fill: #1a2433; fill-opacity: 0.85"/>
    </g>
    <text style="fill: #d1495b; font: 9px 'DejaVu Sans'; text-anchor: middle" x="135.679247" y="105.740041" transform="rotate(-0 135.679247 105.740041)">6</text>
   </g>
   <g id="text_33">
    <g id="patch_13">
     <path d="M 132.816122 159.171571 
L 138.542372 159.171571 
Q 139.892372 159.171571 139.892372 157.821571 
L 139.892372 149.111259 
Q 139.892372 147.761259 138.542372 147.761259 
L 132.816122 147.761259 
Q 131.466122 147.761259 131.466122 149.111259 
L 131.466122 157.821571 
Q 131.466122 159.171571 132.816122 159.171571 
z
" style="fill: #1a2433; fill-opacity: 0.85"/>
    </g>
    <text style="fill: #d1495b; font: 9px 'DejaVu Sans'; text-anchor: middle" x="135.679247" y="155.949853" transform="rotate(-0 135.679247 155.949853)">5</text>
   </g>
   <g id="text_34">
    <g id="patch_14">
     <path d="M 184.246242 143.481005 
L 189.972492 143.481005 
Q 191.322492 143.481005 191.322492 142.131005 
L 191.322492 133.420693 
Q 191.322492 132.070693 189.972492 132.070693 
L 184.246242 132.070693 
Q 182.896242 132.070693 182.896242 133.420693 
L 182.896242 142.131005 
Q 182.896242 143.481005 184.246242 143.481005 
z
" style="fill: #1a2433; fill-opacity: 0.85"/>
    </g>
    <text style="fill: #d1495b; font: 9px 'DejaVu Sans'; text-anchor: middle" x="187.109367" y="140.259287" transform="rotate(-0 187.109367 140.259287)">7</text>
   </g>
   <g id="text_35">
    <g id="patch_15">
     <path d="M 226.600459 199.967043 
L 232.326709 199.967043 
Q 233.676709 199.967043 233.676709 198.617043 
L 233.676709 189.906731 
Q 233.676709 188.556731 232.326709 188.556731 
L 226.600459 188.556731 
Q 225.250459 188.556731 225.250459 189.906731 
L 225.250459 198.617043 
Q 225.250459 199.967043 226.600459 199.967043 
z
" style="fill: #1a2433; fill-opacity: 0.85"/>
    </g>
    <text style="fill: #f5d76e; font: 9px 'DejaVu Sans'; text-anchor: middle" x="229.463584" y="196.745324" transform="rotate(-0 229.463584 196.745324)">3</text>
   </g>
   <g id="text_36">
    <g id="patch_16">
     <path d="M 362.739014 115.237986 
L 368.465264 115.237986 
Q 369.815264 115.237986 369.815264 113.887986 
L 369.815264 105.177674 
Q 369.815264 103.827674 368.465264 103.827674 
L 362.739014 103.827674 
Q 361.389014 103.827674 361.389014 105.177674 
L 361.389014 113.887986 
Q 361.389014 115.237986 362.739014 115.237986 
z
" style="fill: #1a2433; fill-opacity: 0.85"/>
    </g>
    <text style="fill: #f5d76e; font: 9px 'DejaVu Sans'; text-anchor: middle" x="365.602139" y="112.016268" transform="rotate(-0 365.602139 112.016268)">9</text>
   </g>
   <g id="text_37">
    <g id="patch_17">
     <path d="M 287.106483 156.033458 
L 292.832733 156.033458 
Q 294.182733 156.033458 294.182733 154.683458 
L 294.182733 145.973146 
Q 294.182733 144.623146 292.832733 144.623146 
L 287.106483 144.623146 
Q 285.756483 144.623146 285.756483 145.973146 
L 285.756483 154.683458 
Q 285.756483 156.033458 287.106483 156.033458 
z
" style="fill: #1a2433; fill-opacity: 0.85"/>
    </g>
    <text style="fill: #f5d76e; font: 9px 'DejaVu Sans'; text-anchor: middle" x="289.969608" y="152.811739" transform="rotate(-0 289.969608 152.811739)">8</text>
   </g>
   <g id="text_38">
    <g id="patch_18">
     <path d="M 350.637809 206.243269 
L 356.364059 206.243269 
Q 357.714059 206.243269 357.714059 204.893269 
L 357.714059 196.182957 
Q 357.714059 194.832957 356.364059 194.832957 
L 350.637809 194.832957 
Q 349.287809 194.832957 349.287809 196.182957 
L 349.287809 204.893269 
Q 349.287809 206.243269 350.637809 206.243269 
z
" style="fill: #1a2433; fill-opacity: 0.85"/>
    </g>
    <text style="fill: #f5d76e; font: 9px 'DejaVu Sans'; text-anchor: middle" x="353.500934" y="203.021551" transform="rotate(-0 353.500934 203.021551)">5</text>
   </g>
   <g id="text_39">
    <g id="patch_19">
     <path d="M 444.422146 174.862137 
L 450.148396 174.862137 
Q 451.498396 174.862137 451.498396 173.512137 
L 451.498396 164.801825 
Q 451.498396 163.451825 450.148396 163.451825 
L 444.422146 163.451825 
Q 443.072146 163.451825 443.072146 164.801825 
L 443.072146 173.512137 
Q 443.072146 174.862137 444.422146 174.862137 
z
" style="fill: #1a2433; fill-opacity: 0.85"/>
    </g>
    <text style="fill: #f5d76e; font: 9px 'DejaVu Sans'; text-anchor: middle" x="447.285271" y="171.640419" transform="rotate(-0 447.285271 171.640419)">8</text>
   </g>
   <g id="text_40">
    <g id="patch_20">
     <path d="M 432.320941 265.86742 
L 438.047191 265.86742 
Q 439.397191 265.86742 439.397191 264.51742 
L 439.397191 255.807108 
Q 439.397191 254.457108 438.047191 254.457108 
L 432.320941 254.457108 
Q 430.970941 254.457108 430.970941 255.807108 
L 430.970941 264.51742 
Q 430.970941 265.86742 432.320941 265.86742 
z
" style="fill: #1a2433; fill-opacity: 0.85"/>
    </g>
    <text style="fill: #f5d76e; font: 9px 'DejaVu Sans'; text-anchor: middle" x="435.184066" y="262.645702" transform="rotate(-0 435.184066 262.645702)">9</text>
   </g>
   <g id="text_41">
    <g id="patch_21">
     <path d="M 338.536604 303.524779 
L 344.262854 303.524779 
Q 345.612854 303.524779 345.612854 302.174779 
L 345.612854 293.464466 
Q 345.612854 292.114466 344.262854 292.114466 
L 338.536604 292.114466 
Q 337.186604 292.114466 337.186604 293.464466 
L 337.186604 302.174779 
Q 337.186604 303.524779 338.536604 303.524779 
z
" style="fill: #1a2433; fill-opacity: 0.85"/>
    </g>
    <text style="fill: #f5d76e; font: 9px 'DejaVu Sans'; text-anchor: middle" x="341.399729" y="300.30306" transform="rotate(-0 341.399729 300.30306)">8</text>
   </g>
   <g id="text_42">
    <g id="patch_22">
     <path d="M 275.005279 253.314968 
L 280.731529 253.314968 
Q 282.081529 253.314968 282.081529 251.964968 
L 282.081529 243.254655 
Q 282.081529 241.904655 280.731529 241.904655 
L 275.005279 241.904655 
Q 273.655279 241.904655 273.655279 243.254655 
L 273.655279 251.964968 
Q 273.655279 253.314968 275.005279 253.314968 
z
" style="fill: #1a2433; fill-opacity: 0.85"/>
    </g>
    <text style="fill: #f5d76e; font: 9px 'DejaVu Sans'; text-anchor: middle" x="277.868404" y="250.093249" transform="rotate(-0 277.868404 250.093249)">9</text>
   </g>
  </g>
 </g>
 <defs>
  <clipPath id="p8bbde679a0">
   <rect x="17.6925" y="31.08" width="502.2" height="332.64"/>
  </clipPath>
 </defs>
</svg>
